<?xml version="1.0" encoding="UTF-8" standalone="no"?>
<svg
   xmlns:dc="http://purl.org/dc/elements/1.1/"
   xmlns:cc="http://creativecommons.org/ns#"
   xmlns:rdf="http://www.w3.org/1999/02/22-rdf-syntax-ns#"
   xmlns:svg="http://www.w3.org/2000/svg"
   xmlns="http://www.w3.org/2000/svg"
   width="130.78989mm"
   height="128.86328mm"
   viewBox="0 0 130.78989 128.86328"
   version="1.1"
   id="svg8">
  <defs
     id="defs2" />
  <metadata
     id="metadata5">
    <rdf:RDF>
      <cc:Work
         rdf:about="">
        <dc:format>image/svg+xml</dc:format>
        <dc:type
           rdf:resource="http://purl.org/dc/dcmitype/StillImage" />
        <dc:title></dc:title>
      </cc:Work>
    </rdf:RDF>
  </metadata>
  <g
     transform="translate(-11.676257,-14.28406)"
     id="layer1">
    <path
       style="fill:#60d83a;fill-opacity:0.39215686;stroke:#000000;stroke-width:0.85169208;stroke-miterlimit:4;stroke-dasharray:none;stroke-opacity:1"
       d="m 98.754093,119.28917 c 0.0362,0.76736 0.0724,-0.39908 0.10859,0.36636 0.0362,0.76546 0.0724,-0.39723 0.10858,0.36629 0.0362,0.76353 0.0724,-0.39549 0.10859,0.36611 0.0362,0.76161 0.0724,-0.39384 0.10859,0.36584 0.0362,0.75967 0.0724,-0.3923 0.10858,0.36546 0.0362,0.75776 0.0724,-0.39081 0.10859,0.36502 0.0362,0.75584 0.0724,-0.38943 0.10859,0.36447 0.0362,0.75391 0.0724,-0.38814 0.10859,0.36385 0.0362,0.75197 0.0724,-0.38696 0.10858,0.36311 0.0362,0.75005 0.0724,-0.38585 0.10859,0.36229 0.0362,0.74815 0.0724,-0.38483 0.10859,0.36139 0.0362,0.74621 0.0724,-0.38389 0.108577,0.36041 0.0362,0.7443 0.0724,-0.38307 0.10859,0.35931 0.0362,0.74237 0.0724,-0.38231 0.10859,0.35815 0.0362,0.74044 0.0724,-0.38165 0.10858,0.35687 0.0362,0.73851 0.0724,-0.38108 0.10859,0.35552 0.0362,0.7366 0.0724,-0.38057 0.10859,0.35409 0.0362,0.73469 0.0724,-0.38018 0.10859,0.35257 0.0362,0.73275 0.0724,-0.37988 0.10858,0.35096 0.0362,0.73083 0.0724,-0.37967 0.10859,0.34925 0.0362,0.7289 0.0724,-0.37953 0.10859,0.34745 0.0362,0.72701 0.0724,-0.37947 0.10858,0.3456 0.0362,0.72506 0.0724,-0.3795 0.10859,0.34363 0.0362,0.72314 0.0724,-0.37963 0.10859,0.34159 0.0362,0.7212 0.0724,-0.37983 0.10859,0.33945 0.0362,0.71929 0.0724,-0.38013 0.10858,0.33725 0.0362,0.71736 0.0724,-0.3805 0.10859,0.33495 0.0362,0.71545 0.0724,-0.38096 0.10859,0.33257 0.0362,0.71351 0.0724,-0.3815 0.10858,0.3301 0.0362,0.7116 0.0724,-0.3821 0.10859,0.32756 0.0362,0.70967 0.0724,-0.38281 0.10859,0.32494 0.0362,0.70776 0.0724,-0.38361 0.10858,0.32222 0.0362,0.70584 0.0724,-0.38445 0.10859,0.31945 0.0362,0.7039 0.0724,-0.3854 0.10859,0.31658 0.0362,0.70198 0.0724,-0.38643 0.10859,0.31363 0.0362,0.70007 0.0724,-0.38753 0.10858,0.31062 0.0362,0.69814 0.0724,-0.3887 0.10859,0.30751 0.0362,0.69621 0.0724,-0.38994 0.10859,0.30434 0.0362,0.6943 0.0724,-0.39127 0.10858,0.3011 0.0362,0.69235 0.0724,-0.39269 0.10859,0.29777 0.0362,0.69044 0.0724,-0.39415 0.10859,0.29437 0.0362,0.6885 0.0724,-0.3957 0.10859,0.29089 0.0362,0.68658 0.0724,-0.39733 0.10858,0.28734 0.0362,0.68469 0.0724,-0.39901 0.10859,0.28375 0.0362,0.68273 0.0724,-0.40078 0.10859,0.28004 0.0362,0.68084 0.0724,-0.4026 0.10858,0.2763 0.0362,0.67891 0.0724,-0.4045 0.10859,0.27247 0.0362,0.67699 0.0724,-0.40648 0.10859,0.2686 0.0362,0.67505 0.0724,-0.40853 0.10858,0.26461 0.0362,0.67314 0.0724,-0.41061 0.10859,0.26059 0.0362,0.67123 0.0724,-0.41276 0.10859,0.25653 0.0362,0.66929 0.0724,-0.41501 0.10859,0.25237 0.0362,0.66735 0.0724,-0.41729 0.10858,0.24814 0.0362,0.66545 0.0724,-0.41964 0.10859,0.24389 0.0362,0.66349 0.0724,-0.42208 0.10859,0.23953 0.0362,0.66159 0.0724,-0.42454 0.10858,0.23513 0.0362,0.65968 0.0724,-0.42704 0.10859,0.23069 0.0362,0.65774 0.0724,-0.42966 0.10859,0.22617 0.0362,0.65584 0.0724,-0.43228 0.10859,0.22161 0.0362,0.6539 0.0724,-0.43498 0.10858,0.21699 0.0362,0.65199 0.0724,-0.43772 0.10859,0.21232 0.0362,0.65004 0.0724,-0.44055 0.10859,0.20759 0.0362,0.64812 0.0724,-0.44341 0.10858,0.2028 0.0362,0.6462 0.0724,-0.44632 0.10859,0.19797 0.0362,0.64429 0.0724,-0.44926 0.10859,0.19309 0.0362,0.64236 0.0724,-0.45226 0.10858,0.18818 0.0362,0.64045 0.0724,-0.45532 0.10859,0.1832 0.0362,0.6385 0.0724,-0.45842 0.10859,0.17817 0.0362,0.63659 0.0724,-0.46156 0.10859,0.17312 0.0362,0.63467 0.0724,-0.46474 0.10858,0.168 0.0362,0.63274 0.0724,-0.46796 0.10859,0.16285 0.0362,0.63082 0.0724,-0.47123 0.10859,0.15768 0.0362,0.62889 0.0724,-0.47455 0.10858,0.15245 0.0362,0.62697 0.0724,-0.47788 0.10859,0.14716 0.0362,0.62506 0.0724,-0.48125 0.10859,0.14188 0.0362,0.62312 0.0724,-0.48467 0.10859,0.13654 0.0362,0.62119 0.0724,-0.48812 0.10858,0.13114 0.0362,0.61927 0.0724,-0.49161 0.10859,0.12573 0.0362,0.61736 0.0724,-0.49512 0.10859,0.12029 0.0362,0.61545 0.0724,-0.49865 0.10858,0.11489 0.0362,0.6135 0.0724,-0.50223 0.10859,0.10932 0.0362,0.6116 0.0724,-0.5058 0.10859,0.10391 0.0362,0.60967 0.0724,-0.50944 0.10858,0.0984 0.0362,0.60774 0.0724,-0.51309 0.10859,0.0928 0.0362,0.60582 0.0724,-0.51675 0.10859,0.0871 0.0362,0.6039 0.0724,-0.52044 0.10859,0.0816 0.0362,0.60198 0.0724,-0.52415 0.10858,0.0759 0.0362,0.60006 0.0724,-0.52788 0.10859,0.0702 0.0362,0.59813 0.0724,-0.53162 0.10859,0.0646 0.0362,0.59621 0.0724,-0.5354 0.10858,0.0589 0.0362,0.59428 0.0724,-0.53919 0.10859,0.0532 0.0362,0.59235 0.0724,-0.54296 0.10859,0.0474 0.0362,0.59044 0.0724,-0.54676 0.10859,0.0417 0.0362,0.58851 0.0724,-0.55059 0.10858,0.036 0.0362,0.58661 0.0724,-0.5544 0.10859,0.0302 0.0362,0.58467 0.0724,-0.55824 0.10859,0.0245 0.0362,0.58275 0.0724,-0.56206 0.10858,0.0187 0.0362,0.58081 0.0724,-0.56592 0.10859,0.0135 0.0362,0.57889 0.0724,-0.56976 0.10859,0.007 0.0362,0.57698 0.0724,-0.5736 0.10858,0.001 0.0362,0.57504 0.0724,-0.57745 0.10859,-0.004 0.0362,0.57313 0.0724,-0.58128 0.10859,-0.009 0.0362,0.57121 0.0724,-0.58513 0.10859,-0.0159 0.0362,0.5693 0.0724,-0.58896 0.10858,-0.0217 0.0362,0.56736 0.0724,-0.59282 0.10859,-0.0274 0.0362,0.56545 0.0724,-0.59664 0.10859,-0.0332 0.0362,0.5635 0.0724,-0.60046 0.10858,-0.0389 0.0362,0.56159 0.0724,-0.60427 0.10859,-0.0446 0.0362,0.55966 0.0724,-0.60806 0.10859,-0.0503 0.0362,0.55775 0.0724,-0.61185 0.10858,-0.0561 0.0362,0.55582 0.0724,-0.61562 0.10859,-0.0618 0.0362,0.55389 0.0724,-0.61937 0.10859,-0.0675 0.0362,0.55198 0.0724,-0.62311 0.10859,-0.073 0.0362,0.55005 0.0724,-0.62683 0.10858,-0.0787 0.0362,0.54812 0.0724,-0.63055 0.10859,-0.0844 0.0362,0.5462 0.0724,-0.63421 0.10859,-0.09 0.0362,0.54428 0.0724,-0.63787 0.10858,-0.0955 0.0362,0.54236 0.0724,-0.6415 0.10859,-0.10105 0.0362,0.54042 0.0724,-0.64513 0.10859,-0.10662 0.0362,0.5385 0.0724,-0.64872 0.10859,-0.11219 0.0362,0.53658 0.0724,-0.65225 0.10858,-0.11758 0.0362,0.53467 0.0724,-0.6558 0.10859,-0.12301 0.0362,0.53274 0.0724,-0.65929 0.10859,-0.12844 0.0362,0.53081 0.0724,-0.66275 0.10858,-0.13385 0.0362,0.5289 0.0724,-0.66617 0.10859,-0.13921 0.0362,0.52697 0.0724,-0.66957 0.10859,-0.14453 0.0362,0.52505 0.0724,-0.67294 0.10858,-0.14982 0.0362,0.52313 0.0724,-0.67624 0.10859,-0.15505 0.0362,0.5212 0.0724,-0.67954 0.10859,-0.16027 0.0362,0.51928 0.0724,-0.68279 0.10859,-0.16543 0.0362,0.51734 0.0724,-0.686 0.10858,-0.17058 0.0362,0.51543 0.0724,-0.68914 0.10859,-0.17564 0.0362,0.5135 0.0724,-0.69227 0.10859,-0.18069 0.0362,0.51159 0.0724,-0.69534 0.10858,-0.18569 0.0362,0.50965 0.0724,-0.69837 0.10859,-0.19064 0.0362,0.50774 0.0724,-0.70135 0.10859,-0.19554 0.0362,0.50581 0.0724,-0.70429 0.10859,-0.2004 0.0362,0.50389 0.0724,-0.70716 0.10858,-0.20519 0.0362,0.50197 0.0724,-0.71 0.10859,-0.20996 0.0362,0.50004 0.0724,-0.71278 0.10859,-0.21466 0.0362,0.49812 0.0724,-0.71549 0.10858,-0.2193 0.0362,0.4962 0.0724,-0.71818 0.10859,-0.2239 0.0362,0.49427 0.0724,-0.72079 0.10859,-0.22844 0.0362,0.49235 0.0724,-0.72336 0.10858,-0.23292 0.0362,0.49041 0.0724,-0.72586 0.10859,-0.23736 0.0362,0.48851 0.0724,-0.72829 0.10859,-0.2417 0.0362,0.48657 0.0724,-0.73068 0.10859,-0.24603 0.0362,0.48466 0.0724,-0.733 0.10858,-0.25026 0.0362,0.48273 0.0724,-0.73526 0.10859,-0.25444 0.0362,0.4808 0.0724,-0.73745 0.10859,-0.25857 0.0362,0.47888 0.0724,-0.73959 0.10858,-0.26262 0.0362,0.47695 0.0724,-0.74166 0.10859,-0.26662 0.0362,0.47505 0.0724,-0.74365 0.10859,-0.27053 0.0362,0.47311 0.0724,-0.74559 0.10859,-0.27439 0.0362,0.47118 0.0724,-0.74745 0.10858,-0.27819 0.0362,0.46928 0.0724,-0.74925 0.10859,-0.2819 0.0362,0.46735 0.0724,-0.75097 0.10859,-0.28556 0.0362,0.46543 0.0724,-0.75262 0.10858,-0.28913 0.0362,0.4635 0.0724,-0.75421 0.10859,-0.29264 0.0362,0.46157 0.0724,-0.75573 0.10859,-0.29608 0.0362,0.45967 0.0724,-0.75715 0.10858,-0.29943 0.0362,0.45773 0.0724,-0.75854 0.10859,-0.30273 0.0362,0.45581 0.0724,-0.75982 0.10859,-0.30593 0.0362,0.45389 0.0724,-0.76105 0.10859,-0.30907 0.0362,0.45196 0.0724,-0.76218 0.10858,-0.31214 0.0362,0.45003 0.0724,-0.76323 0.10859,-0.31512 0.0362,0.44812 0.0724,-0.76421 0.10859,-0.31802 0.0362,0.44619 0.0724,-0.76511 0.10858,-0.32084 0.0362,0.44425 0.0724,-0.76595 0.10859,-0.3236 0.0362,0.44234 0.0724,-0.76668 0.10859,-0.32626 0.0362,0.44042 0.0724,-0.76733 0.10859,-0.32884 0.0362,0.4385 0.0724,-0.76793 0.10858,-0.33135 0.0362,0.43658 0.0724,-0.76842 0.10859,-0.33377 0.0362,0.43465 0.0724,-0.76884 0.10859,-0.3361 0.0362,0.43272 0.0724,-0.76917 0.10858,-0.33837 0.0362,0.43082 0.0724,-0.76942 0.10859,-0.34053 0.0362,0.42889 0.0724,-0.76957 0.10859,-0.34262 0.0362,0.42697 0.0724,-0.76966 0.10858,-0.34462 0.0362,0.42504 0.0724,-0.76964 0.10859,-0.34654 0.0362,0.42312 0.0724,-0.76957 0.10859,-0.34836 0.0362,0.42117 0.0724,-0.76939 0.10859,-0.35011 0.0362,0.41925 0.0724,-0.76912 0.10858,-0.35177 0.0362,0.41734 0.0724,-0.76876 0.10859,-0.35335 0.0362,0.41543 0.0724,-0.76831 0.10859,-0.35481 0.0362,0.41348 0.0724,-0.7678 0.10858,-0.35623 0.0362,0.41159 0.0724,-0.76717 0.10859,-0.35751 0.0362,0.40965 0.0724,-0.76647 0.10859,-0.35874 0.0362,0.40773 0.0724,-0.76567 0.10859,-0.35987 0.0362,0.40581 0.0724,-0.76479 0.10858,-0.36091 0.0362,0.40388 0.0724,-0.76381 0.10859,-0.36185 0.0362,0.40195 0.0724,-0.76275 0.10859,-0.36271 0.0362,0.40003 0.0724,-0.7616 0.10858,-0.36349 0.0362,0.3981 0.0724,-0.76036 0.10859,-0.36417 0.0362,0.39619 0.0724,-0.75902 0.10859,-0.36476 0.0362,0.39427 0.0724,-0.75758 0.10858,-0.36524 0.0362,0.39234 0.0724,-0.75608 0.10859,-0.36566 0.0362,0.39041 0.0724,-0.75449 0.10859,-0.36599 0.0362,0.3885 0.0724,-0.75278 0.10859,-0.36621 0.0362,0.38657 0.0724,-0.75098 0.10858,-0.36634 0.0362,0.38464 0.0724,-0.74912 0.10859,-0.3664 0.0362,0.38274 0.0724,-0.74713 0.10859,-0.36634 0.0362,0.38081 0.0724,-0.74508 0.10858,-0.3662 0.0362,0.37887 0.0724,-0.74294 0.10859,-0.36598 0.0362,0.37695 0.0724,-0.7407 0.10859,-0.36566 0.0362,0.37502 0.0724,-0.73836 0.10858,-0.36526 0.0362,0.37312 0.0724,-0.73593 0.10859,-0.36476 0.0362,0.3712 0.0724,-0.73342 0.10859,-0.36416 0.0362,0.36926 0.0724,-0.73082 0.10859,-0.36349 0.0362,0.36734 0.0724,-0.72813 0.10858,-0.36271 0.0362,0.36542 0.0724,-0.72536 0.10859,-0.36186 0.0362,0.3635 0.0724,-0.72247 0.10859,-0.36091 0.0362,0.36157 0.0724,-0.71951 0.10858,-0.35986 0.0362,0.35964 0.0724,-0.71646 0.10859,-0.35875 0.0362,0.35773 0.0724,-0.7133 0.10859,-0.35752 0.0362,0.3558 0.0724,-0.71008 0.10859,-0.3562 0.0362,0.35387 0.0724,-0.70678 0.10858,-0.35483 0.0362,0.35195 0.0724,-0.70337 0.10859,-0.35334 0.0362,0.35003 0.0724,-0.69987 0.10859,-0.35176 0.0362,0.34811 0.0724,-0.69631 0.10858,-0.35011 0.0362,0.34618 0.0724,-0.69264 0.10859,-0.34838 0.0362,0.34426 0.0724,-0.68887 0.10859,-0.34653 0.0362,0.34233 0.0724,-0.68504 0.10858,-0.34463 0.0362,0.34041 0.0724,-0.6811 0.10859,-0.34262 0.0362,0.33849 0.0724,-0.67709 0.10859,-0.34053 0.0362,0.33658 0.0724,-0.673 0.10858,-0.33835 0.0362,0.33464 0.0724,-0.66883 0.10859,-0.33612 0.0362,0.33273 0.0724,-0.66456 0.10859,-0.33376 0.0362,0.3308 0.0724,-0.66023 0.10858,-0.33134 0.0362,0.32886 0.0724,-0.6558 0.10859,-0.32885 0.0362,0.32695 0.0724,-0.65128 0.10859,-0.32626 0.0362,0.32503 0.0724,-0.6467 0.10859,-0.32359 0.0362,0.3231 0.0724,-0.64203 0.10858,-0.32085 0.0362,0.32118 0.0724,-0.63727 0.10859,-0.31803 0.0362,0.31927 0.0724,-0.63243 0.10859,-0.31511 0.0362,0.31733 0.0724,-0.62753 0.10858,-0.31212 0.0362,0.3154 0.0724,-0.62257 0.10859,-0.30907 0.0362,0.31347 0.0724,-0.6175 0.10859,-0.30595 0.0362,0.31157 0.0724,-0.61237 0.10858,-0.30272 0.0362,0.30964 0.0724,-0.60715 0.10859,-0.29943 0.0362,0.30771 0.0724,-0.60189 0.10859,-0.29608 0.0362,0.30579 0.0724,-0.59653 0.10859,-0.29266 0.0362,0.30389 0.0724,-0.59108 0.10858,-0.28913 0.0362,0.30195 0.0724,-0.58557 0.10859,-0.28554 0.0362,0.30001 0.0724,-0.58002 0.10859,-0.28192 0.0362,0.29811 0.0724,-0.57436 0.10858,-0.27817 0.0362,0.29618 0.0724,-0.56866 0.10859,-0.27439 0.0362,0.29425 0.0724,-0.56288 0.10859,-0.27055 0.0362,0.29233 0.0724,-0.55702 0.10859,-0.2666 0.0362,0.2904 0.0724,-0.55112 0.10858,-0.26262 0.0362,0.28848 0.0724,-0.54513 0.10859,-0.25857 0.0362,0.28656 0.0724,-0.53909 0.10859,-0.25445 0.0362,0.28464 0.0724,-0.53298 0.10858,-0.25027 0.0362,0.28273 0.0724,-0.52681 0.10859,-0.24601 0.0362,0.28079 0.0724,-0.52058 0.10859,-0.24172 0.0362,0.27888 0.0724,-0.51429 0.10858,-0.23734 0.0362,0.27694 0.0724,-0.50795 0.10859,-0.23292 0.0362,0.27501 0.0724,-0.50155 0.1086,-0.22844 0.0362,0.27309 0.0724,-0.49509 0.10859,-0.2239 0.0362,0.27116 0.0724,-0.48857 0.10858,-0.21931 0.0362,0.26926 0.0724,-0.48199 0.10859,-0.21467 0.0362,0.26734 0.0724,-0.475354 0.10859,-0.20994 0.0362,0.2654 0.0724,-0.468704 0.10858,-0.205214 0.0362,0.263494 0.0724,-0.46196 0.10859,-0.20039 0.0362,0.26156 0.0724,-0.45518 0.10859,-0.19554 0.0362,0.25963 0.0724,-0.44836 0.10859,-0.19064 0.0362,0.25772 0.0724,-0.44148 0.10858,-0.18568 0.0362,0.25578 0.0724,-0.43457 0.10859,-0.1807 0.0362,0.25387 0.0724,-0.42759 0.10859,-0.17565 0.0362,0.25195 0.0724,-0.42058 0.10858,-0.17056 0.0362,0.25002 0.0724,-0.41354 0.10859,-0.16544 0.0362,0.24809 0.0724,-0.40645 0.10859,-0.16027 0.0362,0.24617 0.0724,-0.39931 0.10858,-0.15506 0.0362,0.24425 0.0724,-0.39215 0.10859,-0.14982 0.0362,0.24233 0.0724,-0.38493 0.10859,-0.14453 0.0362,0.24041 0.0724,-0.37769 0.10859,-0.13921 0.0362,0.23849 0.0724,-0.37041 0.10858,-0.13385 0.0362,0.23655 0.0724,-0.3631 0.10859,-0.12843 0.0362,0.23463 0.0724,-0.35576 0.10859,-0.12301 0.0362,0.2327 0.0724,-0.3484 0.10858,-0.1176 0.0362,0.23079 0.0724,-0.34099 0.10859,-0.11217 0.0362,0.22887 0.0724,-0.333561 0.10859,-0.10662 0.0362,0.22693 0.0724,-0.326111 0.10859,-0.10107 0.0362,0.22503 0.0724,-0.318611 0.10858,-0.0955 0.0362,0.2231 0.0724,-0.31111 0.10859,-0.09 0.0362,0.22117 0.0724,-0.30359 0.10859,-0.0843 0.0362,0.21924 0.0724,-0.29604 0.10858,-0.0787 0.0362,0.21732 0.0724,-0.28849 0.10859,-0.073 0.0362,0.2154 0.0724,-0.28089 0.10859,-0.0673 0.0362,0.21347 0.0724,-0.27329 0.10858,-0.0618 0.0362,0.21156 0.0724,-0.26567 0.10859,-0.0561 0.0362,0.20964 0.0724,-0.25803 0.10859,-0.0503 0.0362,0.20771 0.0724,-0.25039 0.10859,-0.0446 0.0362,0.20579 0.0724,-0.24274 0.10858,-0.0389 0.0362,0.20387 0.0724,-0.23507 0.10859,-0.0332 0.0362,0.20194 0.0724,-0.22739 0.10859,-0.0274 0.0362,0.20001 0.0724,-0.21972 0.10858,-0.0217 0.0362,0.19809 0.0724,-0.21203 0.10859,-0.0159 0.0362,0.19617 0.0724,-0.20434 0.10859,-0.009 0.0362,0.19424 0.0724,-0.19665 0.10858,-0.004 0.0362,0.19232 0.0724,-0.18896 0.10859,10e-4 0.0362,0.1904 0.0724,-0.18127 0.10859,0.007 0.0362,0.18848 0.0724,-0.17358 0.10859,0.0136 0.0362,0.18655 0.0724,-0.16589 0.10858,0.0187 0.0362,0.18463 0.0724,-0.1582 0.10859,0.0245 0.0362,0.1827 0.0724,-0.15053 0.10859,0.0302 0.0362,0.18078 0.0724,-0.14286 0.10858,0.036 0.0362,0.17886 0.0724,-0.1352 0.10859,0.0417 0.0362,0.17695 0.0724,-0.12748 0.10859,0.0474 0.0362,0.17502 0.0724,-0.1199 0.10859,0.0532 0.0362,0.17308 0.0724,-0.11231 0.10858,0.0589 0.0362,0.17116 0.0724,-0.10472 0.10859,0.0646 0.0362,0.16925 0.0724,-0.0971 0.10859,0.0703 0.0362,0.16731 0.0724,-0.0896 0.10858,0.0759 0.0362,0.16539 0.0724,-0.082 0.10859,0.0816 0.0362,0.16346 0.0724,-0.0744 0.10859,0.0871 0.0362,0.16156 0.0724,-0.0669 0.10858,0.0927 0.0362,0.15963 0.0724,-0.0593 0.10859,0.0984 0.0362,0.15771 0.0724,-0.0519 0.10859,0.10391 0.0362,0.15577 0.0724,-0.0444 0.10859,0.10933 0.0362,0.15386 0.0724,-0.0371 0.10858,0.11488 0.0362,0.15194 0.0724,-0.0297 0.10859,0.12031 0.0362,0.15001 0.0724,-0.0224 0.10859,0.12572 0.0362,0.14809 0.0724,-0.015 0.10858,0.13114 0.0362,0.14617 0.0724,-0.008 0.10859,0.13653 0.0362,0.14425 0.0724,-4.4e-4 0.10859,0.14187 0.0362,0.14232 0.0724,0.007 0.10859,0.14719 0.0362,0.14039 0.0724,0.014 0.10858,0.15243 0.0362,0.13847 0.0724,0.0211 0.10859,0.15767 0.0362,0.13656 0.0724,0.0282 0.10859,0.16287 0.0362,0.13466 0.0724,0.0352 0.10858,0.168 0.0362,0.13264 0.0724,0.0423 0.10859,0.17312 0.0362,0.13073 0.0724,0.0493 0.10859,0.17817 0.0362,0.12884 0.0724,0.0562 0.10858,0.1832 0.0362,0.12694 0.0724,0.0631 0.10859,0.18816 0.0362,0.12504 0.0724,0.07 0.10859,0.19309 0.0362,0.12315 0.0724,0.0768 0.10859,0.19799 0.0362,0.12111 0.0724,0.0836 0.10858,0.202794 0.0362,0.11922 0.0724,0.0902 0.10859,0.20759 0.0362,0.11732 0.0724,0.0969 0.10859,0.21232 0.0362,0.11543 0.0724,0.1035 0.10858,0.21698 0.0362,0.11353 0.0724,0.11001 0.10859,0.22161 0.0362,0.1115 0.0724,0.11651 0.10859,0.22618 0.0362,0.1096 0.0724,0.12301 0.10859,0.23069 0.0362,0.1077 0.0724,0.12938 0.10858,0.23514 0.0362,0.10581 0.0724,0.13568 0.10859,0.23954 0.0362,0.10391 0.0724,0.14194 0.10859,0.24387 0.0362,0.10188 0.0724,0.14814 0.10858,0.24815 0.0362,0.1 0.0724,0.15428 0.10859,0.25237 0.0362,0.0981 0.0724,0.16035 0.10859,0.25651 0.0362,0.0962 0.0724,0.16636 0.10858,0.2606 0.0362,0.0943 0.0724,0.17231 0.10859,0.26463 0.0362,0.0922 0.0724,0.17819 0.10859,0.26858 0.0362,0.0904 0.0724,0.184 0.10859,0.27247 0.0362,0.0885 0.0724,0.18974 0.10858,0.2763 0.0362,0.0866 0.0724,0.19542 0.10859,0.28004 0.0362,0.0847 0.0724,0.20105 0.10859,0.28374 0.0362,0.0827 0.0724,0.20658 0.10858,0.28736 0.0362,0.0808 0.0724,0.21204 0.10859,0.2909 0.0362,0.0788 0.0724,0.21745 0.10859,0.29437 0.0362,0.077 0.0724,0.22276 0.10859,0.29776 0.0362,0.0751 0.0724,0.22801 0.10858,0.3011 0.0362,0.073 0.0724,0.23318 0.10859,0.30433 0.0362,0.0711 0.0724,0.23829 0.10859,0.30752 0.0362,0.0692 0.0724,0.2433 0.10858,0.31062 0.0362,0.0673 0.0724,0.24825 0.10859,0.31363 0.0362,0.0654 0.0724,0.2531 0.10859,0.31657 0.0362,0.0635 0.0724,0.25791 0.10858,0.31944 0.0362,0.0615 0.0724,0.26262 0.10859,0.32223 0.0362,0.0596 0.0724,0.26724 0.10859,0.32494 0.0362,0.0577 0.0724,0.27179 0.10859,0.32757 0.0362,0.0558 0.0724,0.27625 0.10858,0.3301 0.0362,0.0538 0.0724,0.28064 0.10859,0.33256 0.0362,0.0519 0.0724,0.28495 0.10859,0.33496 0.0362,0.05 0.0724,0.28916 0.10858,0.33724 0.0362,0.0481 0.0724,0.2933 0.10859,0.33946 0.0362,0.0462 0.0724,0.29734 0.10859,0.34158 0.0362,0.0442 0.0724,0.30132 0.10859,0.34363 0.0362,0.0423 0.0724,0.3052 0.10858,0.34559 0.0362,0.0404 0.0724,0.30901 0.10859,0.34747 0.0362,0.0385 0.0724,0.3127 0.10859,0.34924 0.0362,0.0366 0.0724,0.31634 0.10858,0.35095 0.0362,0.0347 0.0724,0.31988 0.10859,0.35257 0.0362,0.0326 0.0724,0.32332 0.10859,0.35409 0.0362,0.0307 0.0724,0.32669 0.10858,0.35553 0.0362,0.0289 0.0724,0.32995 0.10859,0.35689 0.0362,0.027 0.0724,0.33313 0.10859,0.35813 0.0362,0.0251 0.0724,0.33624 0.10859,0.35932 0.0362,0.023 0.0724,0.33923 0.10858,0.36039 0.0362,0.0211 0.0724,0.34216 0.10859,0.3614 0.0362,0.0192 0.0724,0.34499 0.10859,0.36229 0.0362,0.0173 0.0724,0.34773 0.10858,0.36312 0.0362,0.0154 0.0724,0.35037 0.10859,0.36383 0.0362,0.0136 0.0724,0.35293 0.10859,0.36447 0.0362,0.0122 0.0724,0.3554 0.10859,0.36502 0.0362,0.009 0.0724,0.35778 0.10858,0.36547 0.0362,0.008 0.0724,0.36007 0.10859,0.36583 0.0362,0.005 0.0724,0.36226 0.10859,0.36611 0.0362,0.004 0.0724,0.36436 0.10858,0.36629 0.0362,0.001 0.0724,0.36638 0.10859,0.36638"
       title="-sin(x)"
       id="path1643-7" />
    <path
       id="path1610"
       title="sin(x)"
       d="m 12.10163,119.29313 c 0.0362,0.76736 0.07239,-1.13184 0.108587,-0.36639 0.03619,0.76546 0.07239,-1.12981 0.108587,-0.36628 0.0362,0.76353 0.07239,-1.12771 0.108587,-0.36611 0.0362,0.7616 0.07239,-1.12551 0.108587,-0.36583 0.0362,0.75968 0.07239,-1.12323 0.108587,-0.36547 0.0362,0.75775 0.07239,-1.12085 0.108587,-0.36502 0.03619,0.75584 0.07239,-1.11838 0.108587,-0.36447 0.0362,0.75391 0.07239,-1.11582 0.108587,-0.36384 0.0362,0.75199 0.07239,-1.11318 0.108588,-0.36311 0.0362,0.75006 0.07239,-1.11043 0.108587,-0.36229 0.0362,0.74814 0.07239,-1.10762 0.108587,-0.3614 0.03619,0.74622 0.07239,-1.10469 0.108587,-0.36039 0.0362,0.74429 0.07239,-1.1017 0.108587,-0.35933 0.0362,0.74239 0.07239,-1.09857 0.108587,-0.35813 0.0362,0.74045 0.07239,-1.0954 0.108587,-0.35688 0.0362,0.73852 0.07239,-1.09213 0.108587,-0.35553 0.0362,0.73659 0.07239,-1.08877 0.108587,-0.3541 0.0362,0.73469 0.07239,-1.08531 0.108587,-0.35256 0.0362,0.73276 0.07239,-1.08178 0.108587,-0.35095 0.03619,0.73084 0.07239,-1.07815 0.108587,-0.34925 0.0362,0.72891 0.07239,-1.07444 0.108587,-0.34747 0.0362,0.727 0.07239,-1.07064 0.108587,-0.34558 0.0362,0.72505 0.07239,-1.06677 0.108587,-0.34364 0.0362,0.72315 0.07239,-1.06279 0.108587,-0.34157 0.03619,0.7212 0.07239,-1.05876 0.108587,-0.33947 0.0362,0.7193 0.07239,-1.05461 0.108587,-0.33724 0.0362,0.71736 0.07239,-1.0504 0.108587,-0.33495 0.0362,0.71545 0.07239,-1.04609 0.108588,-0.33257 0.0362,0.71353 0.07239,-1.0417 0.108587,-0.3301 0.0362,0.71159 0.07239,-1.03724 0.108587,-0.32756 0.0362,0.70967 0.07239,-1.03269 0.108587,-0.32494 0.0362,0.70775 0.07239,-1.02804 0.108587,-0.32223 0.03619,0.70583 0.07239,-1.02334 0.108587,-0.31944 0.0362,0.7039 0.07239,-1.01856 0.108587,-0.31657 0.0362,0.70197 0.07239,-1.01369 0.108587,-0.31363 0.0362,0.70005 0.07239,-1.00876 0.108587,-0.31062 0.0362,0.69812 0.07239,-1.00373 0.108587,-0.30752 0.03619,0.69621 0.07239,-0.99862 0.108587,-0.30433 0.03619,0.69429 0.07239,-0.99347 0.108587,-0.3011 0.0362,0.69237 0.07239,-0.98821 0.108587,-0.29776 0.0362,0.69044 0.07239,-0.98291 0.108587,-0.29438 0.0362,0.68853 0.07239,-0.9775 0.108587,-0.29089 0.0362,0.6866 0.07239,-0.97203 0.108587,-0.28736 0.0362,0.68468 0.07239,-0.96649 0.108587,-0.28374 0.0362,0.68276 0.07239,-0.96088 0.108587,-0.28004 0.0362,0.68082 0.07239,-0.95521 0.108587,-0.27631 0.03619,0.67892 0.07239,-0.94944 0.108588,-0.27247 0.0362,0.67698 0.07239,-0.94363 0.108587,-0.26858 0.03619,0.67505 0.07239,-0.93775 0.108587,-0.26462 0.0362,0.67312 0.07239,-0.93181 0.108587,-0.26061 0.0362,0.67122 0.07239,-0.9258 0.108587,-0.25651 0.03619,0.66928 0.07239,-0.91973 0.108587,-0.25236 0.0362,0.66737 0.07239,-0.91359 0.108587,-0.24815 0.03619,0.66544 0.07239,-0.9074 0.108587,-0.24387 0.03619,0.66352 0.07239,-0.90114 0.108587,-0.23954 0.0362,0.6616 0.07239,-0.89482 0.108587,-0.23515 0.03619,0.65968 0.07239,-0.88844 0.108587,-0.23068 0.0362,0.65775 0.07239,-0.88201 0.108587,-0.22618 0.03619,0.65582 0.07239,-0.87552 0.108587,-0.22161 0.0362,0.6539 0.07239,-0.868964 0.108587,-0.21698 0.0362,0.65196 0.07239,-0.862384 0.108587,-0.21232 0.03619,0.65005 0.07239,-0.855724 0.108587,-0.20759 0.0362,0.64813 0.07239,-0.849004 0.108587,-0.202804 0.0362,0.646214 0.07239,-0.84226 0.108587,-0.19798 0.0362,0.644284 0.07239,-0.83546 0.108587,-0.19309 0.0362,0.642364 0.07239,-0.8286 0.108588,-0.18817 0.03619,0.64044 0.07239,-0.82172 0.108587,-0.18319 0.03619,0.63851 0.07239,-0.81477 0.108587,-0.17818 0.0362,0.63659 0.07239,-0.80779 0.108587,-0.17311 0.0362,0.63467 0.07239,-0.80076 0.108587,-0.168 0.0362,0.63274 0.07239,-0.79369 0.108587,-0.16287 0.0362,0.63083 0.07239,-0.78656 0.108587,-0.15767 0.03619,0.62891 0.07239,-0.77941 0.108587,-0.15244 0.0362,0.62697 0.07239,-0.77223 0.108587,-0.14718 0.03619,0.62506 0.07239,-0.76501 0.108587,-0.14187 0.03619,0.62312 0.07239,-0.75774 0.108587,-0.13653 0.0362,0.6212 0.07239,-0.75046 0.108587,-0.13114 0.03619,0.61927 0.07239,-0.743126 0.108587,-0.12573 0.0362,0.61737 0.07239,-0.735746 0.108587,-0.1203 0.0362,0.61544 0.07239,-0.728366 0.108587,-0.11488 0.03619,0.6135 0.07239,-0.720966 0.108587,-0.10933 0.0362,0.61158 0.07239,-0.713526 0.108587,-0.10391 0.03619,0.60967 0.07239,-0.706046 0.108587,-0.0984 0.0362,0.60775 0.07239,-0.698546 0.108587,-0.0927 0.0362,0.605816 0.07239,-0.69104 0.108588,-0.0871 0.0362,0.603886 0.07239,-0.68351 0.108587,-0.0816 0.0362,0.601966 0.07239,-0.67595 0.108587,-0.0759 0.03619,0.600046 0.07239,-0.66837 0.108587,-0.0703 0.03619,0.598126 0.07239,-0.66077 0.108587,-0.0646 0.0362,0.596196 0.07239,-0.65316 0.108587,-0.0589 0.0362,0.594276 0.07239,-0.64555 0.108587,-0.0532 0.03619,0.592356 0.07239,-0.6379 0.108587,-0.0474 0.0362,0.59044 0.07239,-0.63025 0.108587,-0.0417 0.03619,0.58851 0.07239,-0.62259 0.108587,-0.036 0.0362,0.58659 0.07239,-0.61491 0.108587,-0.0302 0.0362,0.58466 0.07239,-0.60724 0.108587,-0.0245 0.03619,0.58274 0.07239,-0.59956 0.108587,-0.0187 0.0362,0.58081 0.07239,-0.59189 0.108587,-0.0136 0.03619,0.57889 0.07239,-0.58419 0.108587,-0.007 0.0362,0.57698 0.07239,-0.57649 0.108587,-10e-4 0.0362,0.57504 0.07239,-0.5688 0.108587,0.004 0.03619,0.57314 0.07239,-0.5611 0.108587,0.009 0.0362,0.57121 0.07239,-0.55341 0.108588,0.0159 0.03619,0.56928 0.07239,-0.54573 0.108587,0.0217 0.0362,0.56736 0.07239,-0.53804 0.108587,0.0274 0.0362,0.56544 0.07239,-0.53038 0.108587,0.0332 0.03619,0.5635 0.07239,-0.52272 0.108587,0.0389 0.0362,0.56159 0.07239,-0.51505 0.108587,0.0446 0.0362,0.55966 0.07239,-0.50742 0.108587,0.0503 0.0362,0.557736 0.07239,-0.49979 0.108587,0.0561 0.0362,0.555816 0.07239,-0.49215 0.108587,0.0618 0.03619,0.553876 0.07239,-0.48457 0.108587,0.0673 0.03619,0.551966 0.07239,-0.47697 0.108587,0.073 0.0362,0.550046 0.07239,-0.46941 0.108587,0.0787 0.0362,0.548116 0.07239,-0.46187 0.108587,0.0843 0.0362,0.546196 0.07239,-0.45433 0.108587,0.09 0.0362,0.544266 0.07239,-0.44683 0.108587,0.0955 0.03619,0.54235 0.07239,-0.439336 0.108587,0.10106 0.0362,0.54043 0.07239,-0.431886 0.108587,0.10662 0.03619,0.53852 0.07239,-0.424456 0.108587,0.11218 0.03619,0.53658 0.07239,-0.417056 0.108587,0.11759 0.0362,0.53466 0.07239,-0.40968 0.108588,0.12301 0.03619,0.53274 0.07239,-0.40233 0.108587,0.12844 0.0362,0.53081 0.07239,-0.39504 0.108587,0.13385 0.03619,0.5289 0.07239,-0.38775 0.108587,0.13921 0.03619,0.52696 0.07239,-0.38051 0.108587,0.14453 0.0362,0.52505 0.07239,-0.37331 0.108587,0.14982 0.03619,0.52312 0.07239,-0.36614 0.108587,0.15505 0.03619,0.52121 0.07239,-0.35899 0.108587,0.16027 0.0362,0.51928 0.07239,-0.35191 0.108587,0.16545 0.0362,0.51734 0.07239,-0.34487 0.108587,0.17056 0.0362,0.51542 0.07239,-0.33786 0.108587,0.17565 0.03619,0.5135 0.07239,-0.33089 0.108587,0.18069 0.03619,0.51157 0.07239,-0.32397 0.108587,0.18569 0.0362,0.50966 0.07239,-0.3171 0.108587,0.19064 0.0362,0.507724 0.07239,-0.31028 0.108587,0.19553 0.0362,0.505824 0.07239,-0.30349 0.108587,0.2004 0.0362,0.503894 0.07239,-0.29676 0.108587,0.205204 0.03619,0.50197 0.07239,-0.290094 0.108587,0.20995 0.0362,0.50004 0.07239,-0.28346 0.108587,0.21466 0.0362,0.49812 0.07239,-0.27688 0.108588,0.21931 0.03619,0.4962 0.07239,-0.27037 0.108587,0.2239 0.0362,0.49428 0.07239,-0.2639 0.108587,0.22844 0.03619,0.49235 0.07239,-0.2575 0.108587,0.23293 0.0362,0.49042 0.07239,-0.25116 0.108587,0.23734 0.0362,0.4885 0.07239,-0.24486 0.108587,0.24172 0.03619,0.48657 0.07239,-0.23865 0.108587,0.24601 0.0362,0.48466 0.07239,-0.23247 0.108587,0.25026 0.03619,0.48274 0.07239,-0.22635 0.108587,0.25445 0.0362,0.48081 0.07239,-0.22032 0.108587,0.25857 0.0362,0.47889 0.07239,-0.21435 0.108587,0.26262 0.03619,0.47696 0.07239,-0.20843 0.108587,0.26661 0.0362,0.47505 0.07239,-0.20258 0.108587,0.27054 0.0362,0.47311 0.07239,-0.1968 0.108587,0.2744 0.0362,0.47118 0.07239,-0.19109 0.108587,0.27817 0.0362,0.46928 0.07239,-0.18544 0.108587,0.28191 0.0362,0.46734 0.07239,-0.17987 0.108587,0.28555 0.03619,0.46543 0.07239,-0.17436 0.108587,0.28913 0.0362,0.46351 0.07239,-0.16894 0.108587,0.29265 0.03619,0.46158 0.07239,-0.16358 0.108588,0.29609 0.0362,0.45964 0.07239,-0.15831 0.108587,0.29943 0.0362,0.45773 0.07239,-0.15308 0.108587,0.30272 0.03619,0.45581 0.07239,-0.14794 0.108587,0.30594 0.0362,0.45389 0.07239,-0.14288 0.108587,0.30908 0.03619,0.45196 0.07239,-0.1379 0.108587,0.31212 0.03619,0.45003 0.07239,-0.13304 0.108587,0.31511 0.0362,0.44811 0.07239,-0.12815 0.108587,0.31803 0.03619,0.44619 0.07239,-0.12342 0.108587,0.32085 0.0362,0.44427 0.07239,-0.11881 0.108587,0.32358 0.03619,0.44235 0.07239,-0.1142 0.108587,0.32627 0.0362,0.44042 0.07239,-0.1096 0.108587,0.32884 0.0362,0.4385 0.07239,-0.10526 0.108587,0.33135 0.03619,0.43657 0.07239,-0.10093 0.108587,0.33376 0.0362,0.43466 0.07239,-0.0966 0.108587,0.33612 0.0362,0.43272 0.07239,-0.0924 0.108587,0.33835 0.0362,0.43081 0.07239,-0.0883 0.108587,0.34053 0.0362,0.42889 0.07239,-0.0844 0.108587,0.34262 0.03619,0.42697 0.07239,-0.0803 0.108587,0.34462 0.03619,0.42503 0.07239,-0.0765 0.108588,0.34654 0.0362,0.42312 0.07239,-0.0729 0.108587,0.34838 0.0362,0.42118 0.07239,-0.0692 0.108587,0.35011 0.0362,0.41926 0.07239,-0.0656 0.108587,0.35176 0.0362,0.41735 0.07239,-0.062 0.108587,0.35334 0.03619,0.41542 0.07239,-0.0587 0.108587,0.35482 0.0362,0.4135 0.07239,-0.0554 0.108587,0.35621 0.0362,0.41158 0.07239,-0.0522 0.108587,0.35752 0.03619,0.40965 0.07239,-0.049 0.108587,0.35874 0.0362,0.40773 0.07239,-0.0459 0.108587,0.35987 0.03619,0.4058 0.07239,-0.0429 0.108587,0.36091 0.0362,0.40388 0.07239,-0.0401 0.108587,0.36185 0.0362,0.40196 0.07239,-0.0373 0.108587,0.36271 0.03619,0.40004 0.07239,-0.0347 0.108587,0.3635 0.0362,0.39811 0.07239,-0.032 0.108587,0.36416 0.03619,0.39619 0.07239,-0.0295 0.108587,0.36476 0.0362,0.39426 0.07239,-0.0271 0.108587,0.36525 0.0362,0.39234 0.07239,-0.0248 0.108587,0.36567 0.03619,0.39041 0.07239,-0.0225 0.108587,0.36597 0.0362,0.3885 0.07239,-0.0203 0.108588,0.36621 0.03619,0.38657 0.07239,-0.0183 0.108587,0.36634 0.0362,0.38466 0.07239,-0.0164 0.108587,0.3664 0.0362,0.38272 0.07239,-0.0145 0.108587,0.36634 0.0362,0.38081 0.07239,-0.0122 0.108587,0.3662 0.03619,0.37889 0.07239,-0.0108 0.108587,0.36599 0.0362,0.37695 0.07239,-0.009 0.108587,0.36567 0.03619,0.37502 0.07239,-0.008 0.108587,0.36524 0.0362,0.37312 0.07239,-0.007 0.108587,0.36476 0.0362,0.37119 0.07239,-0.005 0.108587,0.36417 0.03619,0.36925 0.07239,-0.004 0.108587,0.36348 0.0362,0.36735 0.07239,-0.003 0.108587,0.36271 0.03619,0.36542 0.07239,-10e-4 0.108587,0.36186 0.0362,0.3635 0.07239,-6.6e-4 0.108587,0.36091 0.0362,0.36157 0.07239,2.2e-4 0.108587,0.35986 0.03619,0.35965 0.07239,10e-4 0.108587,0.35875 0.0362,0.35772 0.07239,10e-4 0.108587,0.35752 0.03619,0.3558 0.07239,0.003 0.108587,0.35622 0.0362,0.35388 0.07239,0.003 0.108588,0.35481 0.0362,0.35195 0.07239,0.003 0.108587,0.35335 0.03619,0.35003 0.07239,0.004 0.108587,0.35176 0.0362,0.34811 0.07239,0.004 0.108587,0.35011 0.0362,0.34619 0.07239,0.004 0.108587,0.34837 0.0362,0.34426 0.07239,0.004 0.108587,0.34653 0.0362,0.34235 0.07239,0.004 0.108587,0.34463 0.03619,0.34041 0.07239,0.004 0.108587,0.34262 0.03619,0.33848 0.07239,0.004 0.108587,0.34053 0.0362,0.33656 0.07239,0.004 0.108587,0.33837 0.0362,0.33463 0.07239,0.003 0.108587,0.3361 0.0362,0.33271 0.07239,0.003 0.108587,0.33377 0.03619,0.33079 0.07239,0.003 0.108587,0.33135 0.03619,0.32887 0.07239,0.001 0.108587,0.32884 0.0362,0.32694 0.07239,0.001 0.108587,0.32625 0.03619,0.32504 0.07239,4.9e-4 0.108587,0.3236 0.03619,0.3231 0.07239,-3.4e-4 0.108587,0.32085 0.0362,0.32117 0.07239,-0.001 0.108587,0.31802 0.03619,0.31926 0.07239,-0.003 0.108587,0.31512 0.0362,0.31733 0.07239,-0.003 0.108588,0.31213 0.03619,0.3154 0.07239,-0.004 0.108587,0.30908 0.03619,0.31348 0.07239,-0.005 0.108587,0.30593 0.0362,0.31157 0.07239,-0.007 0.108587,0.30272 0.0362,0.30965 0.07239,-0.008 0.108587,0.29945 0.0362,0.30772 0.07239,-0.009 0.108587,0.29606 0.0362,0.3058 0.07239,-0.0108 0.108587,0.29265 0.03619,0.30387 0.07239,-0.0122 0.108587,0.28913 0.0362,0.30195 0.07239,-0.0145 0.108587,0.28556 0.03619,0.30002 0.07239,-0.0163 0.108587,0.2819 0.03619,0.2981 0.07239,-0.018 0.108587,0.27818 0.0362,0.29618 0.07239,-0.0199 0.108587,0.2744 0.03619,0.29425 0.07239,-0.0218 0.108587,0.27053 0.0362,0.29233 0.07239,-0.0238 0.108587,0.26662 0.0362,0.2904 0.07239,-0.0259 0.108587,0.26262 0.03619,0.28848 0.07239,-0.028 0.108587,0.25857 0.0362,0.28656 0.07239,-0.0302 0.108587,0.25443 0.03619,0.28464 0.07239,-0.0324 0.108587,0.25027 0.03619,0.28271 0.07239,-0.0348 0.108587,0.24602 0.0362,0.28079 0.07239,-0.0371 0.108588,0.24171 0.03619,0.27888 0.07239,-0.0396 0.108587,0.23735 0.0362,0.27694 0.07239,-0.0421 0.108587,0.23293 0.0362,0.27501 0.07239,-0.0447 0.108587,0.22844 0.03619,0.27309 0.07239,-0.0473 0.108587,0.2239 0.0362,0.27117 0.07239,-0.05 0.108587,0.21929 0.0362,0.26926 0.07239,-0.0527 0.108587,0.21467 0.03619,0.26733 0.07239,-0.0554 0.108587,0.20996 0.0362,0.26539 0.07239,-0.0583 0.108587,0.20519 0.03619,0.26349 0.07239,-0.0611 0.108587,0.2004 0.0362,0.26156 0.07239,-0.0641 0.108587,0.19554 0.03619,0.25964 0.07239,-0.0671 0.108587,0.19064 0.03619,0.25771 0.07239,-0.07 0.108587,0.18569 0.0362,0.25579 0.07239,-0.0732 0.108587,0.18068 0.03619,0.25387 0.07239,-0.0763 0.108587,0.17566 0.03619,0.25195 0.07239,-0.0795 0.108587,0.17057 0.0362,0.25002 0.07239,-0.0827 0.108587,0.16543 0.03619,0.24809 0.07239,-0.0859 0.108587,0.16026 0.0362,0.24618 0.07239,-0.0891 0.108587,0.15507 0.03619,0.24425 0.07239,-0.0925 0.108588,0.14981 0.03619,0.24233 0.07239,-0.0959 0.108587,0.14453 0.0362,0.24041 0.07239,-0.0993 0.108587,0.13921 0.03619,0.23848 0.07239,-0.10269 0.108587,0.13385 0.0362,0.23656 0.07239,-0.10621 0.108587,0.12843 0.0362,0.23465 0.07239,-0.1096 0.108587,0.12301 0.0362,0.23273 0.07239,-0.11312 0.108587,0.1176 0.0362,0.23078 0.07239,-0.11678 0.108587,0.11217 0.03619,0.22886 0.07239,-0.1203 0.108587,0.10662 0.03619,0.22694 0.07239,-0.12396 0.108587,0.10107 0.0362,0.22502 0.07239,-0.12762 0.108587,0.0955 0.03619,0.2231 0.07239,-0.13128 0.108587,0.09 0.0362,0.22118 0.07239,-0.13493 0.108587,0.0844 0.0362,0.21924 0.07239,-0.13862 0.108587,0.0787 0.03619,0.21732 0.07239,-0.14233 0.108587,0.073 0.0362,0.21541 0.07239,-0.14607 0.108587,0.0675 0.03619,0.21348 0.07239,-0.14983 0.108587,0.0618 0.03619,0.21156 0.07239,-0.15359 0.108587,0.0561 0.0362,0.20964 0.07239,-0.15738 0.108587,0.0503 0.03619,0.20771 0.07239,-0.16117 0.108588,0.0446 0.0362,0.20579 0.07239,-0.16498 0.108587,0.0389 0.0362,0.20386 0.07239,-0.16882 0.108587,0.0332 0.03619,0.20194 0.07239,-0.17264 0.108587,0.0274 0.0362,0.20002 0.07239,-0.17647 0.108587,0.0217 0.03619,0.19809 0.07239,-0.18031 0.108587,0.0159 0.0362,0.19617 0.07239,-0.18415 0.108587,0.009 0.0362,0.19425 0.07239,-0.18798 0.108587,0.004 0.0362,0.19232 0.07239,-0.19185 0.108587,-0.001 0.0362,0.1904 0.07239,-0.19568 0.108587,-0.007 0.03619,0.18847 0.07239,-0.19953 0.108587,-0.0135 0.03619,0.18655 0.07239,-0.20337 0.108587,-0.0187 0.0362,0.18464 0.07239,-0.20721 0.108587,-0.0245 0.03619,0.1827 0.07239,-0.21105 0.108587,-0.0302 0.03619,0.1808 0.07239,-0.21485 0.108587,-0.036 0.0362,0.17885 0.07239,-0.21867 0.108587,-0.0417 0.03619,0.17693 0.07239,-0.22248 0.108587,-0.0474 0.0362,0.17503 0.07239,-0.22627 0.108587,-0.0532 0.0362,0.17309 0.07239,-0.23005 0.108587,-0.0589 0.03619,0.17116 0.07239,-0.23382 0.108588,-0.0646 0.0362,0.16925 0.07239,-0.23756 0.108587,-0.0702 0.03619,0.16731 0.07239,-0.2413 0.108587,-0.0759 0.0362,0.16539 0.07239,-0.245 0.108587,-0.0815 0.0362,0.16346 0.07239,-0.2487 0.108587,-0.0871 0.03619,0.16155 0.07239,-0.25237 0.108587,-0.0928 0.0362,0.15963 0.07239,-0.25601 0.108587,-0.0984 0.03619,0.15769 0.07239,-0.25964 0.108587,-0.10391 0.0362,0.15578 0.07239,-0.26323 0.108587,-0.10933 0.0362,0.15386 0.07239,-0.26681 0.108587,-0.11488 0.03619,0.15193 0.07239,-0.27035 0.108587,-0.12031 0.0362,0.15002 0.07239,-0.27385 0.108587,-0.12572 0.0362,0.14809 0.07239,-0.27733 0.108587,-0.13114 0.03619,0.14617 0.07239,-0.28079 0.108587,-0.13653 0.0362,0.14424 0.07239,-0.2842 0.108587,-0.14189 0.03619,0.14232 0.07239,-0.28757 0.108587,-0.14716 0.03619,0.14039 0.07239,-0.29093 0.108587,-0.15246 0.0362,0.13847 0.07239,-0.29421 0.108587,-0.15766 0.0362,0.13654 0.0724,-0.29748 0.10859,-0.16286 0.0362,0.13466 0.0724,-0.30072 0.10858,-0.168 0.0362,0.13276 0.0724,-0.3039 0.10859,-0.17311 0.0362,0.13073 0.0724,-0.30703 0.10859,-0.17818 0.0362,0.12883 0.0724,-0.31014 0.10859,-0.18319 0.0362,0.12694 0.0724,-0.31318 0.10858,-0.18818 0.0362,0.12504 0.0724,-0.31618 0.10859,-0.19309 0.0362,0.12314 0.0724,-0.31915 0.10859,-0.19798 0.0362,0.12112 0.0724,-0.32204 0.10858,-0.2028 0.0362,0.11921 0.0724,-0.3249 0.10859,-0.20758 0.0362,0.11732 0.0724,-0.32772 0.10859,-0.21232 0.0362,0.11543 0.0724,-0.33047 0.10858,-0.21699 0.0362,0.11353 0.0724,-0.33315 0.10859,-0.22161 0.0362,0.11149 0.0724,-0.33579 0.10859,-0.22618 0.0362,0.1096 0.0724,-0.33838 0.10859,-0.23069 0.0362,0.1077 0.0724,-0.34091 0.10858,-0.23513 0.0362,0.1058 0.0724,-0.34339 0.10859,-0.23954 0.0362,0.10391 0.0724,-0.34581 0.10859,-0.24388 0.0362,0.10188 0.0724,-0.34815 0.10858,-0.24814 0.0362,0.1 0.0724,-0.35045 0.10859,-0.25237 0.0362,0.0981 0.0724,-0.35268 0.10859,-0.25652 0.0362,0.0962 0.0724,-0.35484 0.10859,-0.2606 0.0362,0.0943 0.0724,-0.35694 0.10858,-0.26461 0.0362,0.0923 0.0724,-0.35899 0.10859,-0.2686 0.0362,0.0904 0.0724,-0.36093 0.10859,-0.27247 0.0362,0.0885 0.0724,-0.36284 0.10858,-0.27629 0.0362,0.0866 0.0724,-0.36467 0.10859,-0.28006 0.0362,0.0847 0.0724,-0.36643 0.10859,-0.28374 0.0362,0.0826 0.0724,-0.36811 0.10858,-0.28734 0.0362,0.0807 0.0724,-0.36976 0.10859,-0.2909 0.0362,0.0789 0.0724,-0.3713 0.10859,-0.29436 0.0362,0.0769 0.0724,-0.37278 0.10859,-0.29778 0.0362,0.0751 0.0724,-0.37417 0.10858,-0.30108 0.0362,0.073 0.0724,-0.3755 0.10859,-0.30435 0.0362,0.0711 0.0724,-0.37674 0.10859,-0.30751 0.0362,0.0692 0.0724,-0.37793 0.10858,-0.31061 0.0362,0.0673 0.0724,-0.37902 0.10859,-0.31364 0.0362,0.0654 0.0724,-0.38004 0.10859,-0.31658 0.0362,0.0635 0.0724,-0.38099 0.10859,-0.31944 0.0362,0.0615 0.0724,-0.38185 0.10858,-0.32223 0.0362,0.0596 0.0724,-0.38264 0.10859,-0.32494 0.0362,0.0577 0.0724,-0.38333 0.10859,-0.32756 0.0362,0.0558 0.0724,-0.38395 0.10858,-0.3301 0.0362,0.0538 0.0724,-0.38449 0.10859,-0.33258 0.0362,0.0519 0.0724,-0.38494 0.10859,-0.33493 0.0362,0.05 0.0724,-0.38534 0.10858,-0.33726 0.0362,0.0481 0.0724,-0.38561 0.10859,-0.33945 0.0362,0.0462 0.0724,-0.38582 0.10859,-0.34159 0.0362,0.0442 0.0724,-0.38594 0.10859,-0.34363 0.0362,0.0423 0.0724,-0.38598 0.10858,-0.34559 0.0362,0.0404 0.0724,-0.38593 0.10859,-0.34746 0.0362,0.0385 0.0724,-0.38579 0.10859,-0.34925 0.0362,0.0366 0.0724,-0.38557 0.10858,-0.35095 0.0362,0.0347 0.0724,-0.38526 0.10859,-0.35257 0.0362,0.0326 0.0724,-0.38486 0.10859,-0.35409 0.0362,0.0307 0.0724,-0.38438 0.10858,-0.35553 0.0362,0.0289 0.0724,-0.38381 0.10859,-0.35687 0.0362,0.027 0.0724,-0.38314 0.10859,-0.35815 0.0362,0.0251 0.0724,-0.38239 0.10859,-0.35931 0.0362,0.023 0.0724,-0.38155 0.10858,-0.36041 0.0362,0.0211 0.0724,-0.38062 0.10859,-0.36138 0.0362,0.0192 0.0724,-0.3796 0.10859,-0.3623 0.0362,0.0173 0.0724,-0.3785 0.10858,-0.36311 0.0362,0.0154 0.0724,-0.3773 0.10859,-0.36385 0.0362,0.0136 0.0724,-0.376 0.10859,-0.36447 0.0362,0.0122 0.0724,-0.37463 0.10859,-0.36501 0.0362,0.009 0.0724,-0.37316 0.10858,-0.36546 0.0362,0.008 0.0724,-0.37161 0.10859,-0.36584 0.0362,0.005 0.0724,-0.36995 0.10859,-0.36611 0.0362,0.004 0.0724,-0.36821 0.10858,-0.36629 0.0362,10e-4 0.0724,-0.36637 0.10859,-0.36637"
       style="fill:#ff0e2f;fill-opacity:0.39215686;stroke:#000000;stroke-width:0.85169208;stroke-miterlimit:4;stroke-dasharray:none;stroke-opacity:1" />
    <g
       id="layer1-3"
       transform="translate(-19.78419,-22.613919)">
      <path
         style="fill:none;stroke:#000000;stroke-width:0.26458332px;stroke-linecap:butt;stroke-linejoin:miter;stroke-opacity:1"
         d="M 36.389153,132.95561 Z"
         id="path4538" />
      <path
         style="fill:#ffad57;fill-opacity:1;stroke:#000000;stroke-width:1;stroke-linecap:butt;stroke-linejoin:miter;stroke-miterlimit:4;stroke-dasharray:none;stroke-opacity:1"
         d="m 97.541658,144.38297 c -0.590444,-0.1672 -0.524488,-1.24389 -0.524488,-1.24389 0.08495,-0.78228 0.911767,-1.42851 0.911767,-1.42851 -0.730215,-0.44008 0,0 -1.657705,-0.9827 -0.533082,0.28457 -0.759741,0.55929 -1.737154,0.72907 -0.501775,0.0872 -0.870955,-1.81032 -1.389495,-1.3119 -0.322515,0.30999 -0.424774,-0.2282 -0.861158,-0.45097 -0.328354,-0.16761 -2.011091,0.1582 -2.354788,-0.0144 -0.276059,-0.13863 -0.321275,-1.10365 -0.607992,-1.24103 -0.586992,-0.28127 -2.062327,-0.0206 -2.675322,-0.30257 -0.275152,-0.12655 -0.602706,-0.56986 -0.882198,-0.6949 -0.39701,-0.17763 -0.964734,-0.32018 -1.368362,-0.4938 -0.819694,-0.35258 -1.768424,-0.8124 -2.603627,-1.1373 -0.757214,-0.29456 -2.620662,-0.15309 -3.363696,-0.42215 -0.374633,-0.13566 -0.363083,-0.53444 -0.733023,-0.66128 -0.460953,-0.158 -1.617738,0.10791 -2.06564,-0.0365 -0.463547,-0.14946 -0.846396,-0.5396 -1.362335,-0.76725 -0.510402,-0.22521 -1.319443,-0.14718 -1.745436,-0.12388 -1.067543,0.0583 -0.936829,2e-5 -1.816334,-0.14126 -0.958368,-0.15394 -2.712196,-0.65567 -3.426159,-0.61767 -0.78794,0.042 -1.663833,1.06935 -1.596343,2.3603 0.07236,1.38409 0.785167,3.06118 0.795987,3.84332 0.03949,2.85333 -3.275973,2.12906 -5.481264,2.10286 -6.461258,-0.0767 -8.581195,0.35288 -10.752288,-0.34242 -0.788812,-0.25262 2.61231,-0.8161 1.938067,-1.55508 -0.417696,-0.45779 -2.324026,-0.64917 -2.53362,-1.15043 -0.181764,-0.43471 0.566907,-0.59866 1.004402,-1.10987 -0.419744,-0.60012 -1.775652,-1.07206 -1.877018,-1.22918 -0.156564,-0.24267 0.04268,-0.60358 0.420926,-0.74792 3.030864,-1.15656 6.018051,-0.54176 8.009821,-1.70993 0.48105,-1.44589 0.69365,-6.18272 0.49831,-6.8074 -1.781318,2.27147 -3.797334,2.63459 -4.459175,2.82175 -0.868918,0.24572 -2.015046,0.50577 -3.640941,0.65541 -1.329293,0.12238 -2.946525,0.044 -3.780564,0.0119 -0.532259,-0.0952 -1.735304,0.058 -2.215358,-0.42468 -0.184229,-0.6015 0.831132,-0.82826 1.52558,-1.23788 0.212336,-0.54992 -1.864007,-0.82987 -1.863823,-1.0391 2.89e-4,-0.32763 1.259263,-0.45224 1.517762,-0.87349 0.246874,-0.40231 -0.919261,-0.67589 -0.831993,-0.97231 0.03733,-0.12682 1.189864,-0.51736 1.719307,-0.48133 1.84462,0.0976 2.298926,0.14725 4.160723,-0.0283 0.754675,-1.0361 0.563135,-1.42849 0.731165,-2.6677 0.172782,-1.27426 -0.13667,-2.97132 -0.23492,-4.15918 -0.164382,-1.98743 -0.879815,-2.6367 -1.939867,-2.90914 0.139198,-1.29339 0.298476,-2.16611 0.554528,-2.9844 -1.229743,3.49918 -5.397032,12.45988 -9.127063,17.33121 -0.95344,1.24517 -4.08317,3.135 -4.08317,3.135 0,0 4.621754,-21.04464 4.432767,-22.74553 -0.188989,-1.7009 0.381973,-2.59871 0.287473,-2.7877 -0.09449,-0.18899 -1.101158,-0.15378 -1.089347,-1.12235 0.01183,-0.96856 1.09641,-1.55117 1.557068,-1.63386 0.460658,-0.0827 0.391872,-6.988715 0.250132,-7.224951 C 41.034037,97.121463 39.148606,85.9666 38.89576,85.057956 38.615349,84.050251 37.59669,72.906685 37.514131,71.584449 37.430814,70.250067 36.385392,54.545589 37.15978,53.772321 c 0.962833,-0.961441 1.819992,0.235539 1.819992,0.235539 1.002178,1.194279 0.885848,1.620157 1.24423,3.048296 0,0 1.873096,4.700912 2.014837,5.976582 0.141741,1.275669 2.126116,11.386532 2.173363,12.473214 0.04725,1.086681 1.559152,8.646205 1.559152,9.827381 0,1.181175 -0.04725,8.173735 0.141741,8.835193 0.188988,0.661459 0.708706,1.559152 1.511905,1.842634 0.8032,0.283482 1.27567,0.283482 1.795387,0.09449 0.519717,-0.188988 1.086682,-0.425223 1.228423,-0.897693 0.141741,-0.47247 3.449032,-9.496652 3.449032,-9.496652 0,0 3.665785,-10.144113 3.966463,-10.678652 0.300678,-0.534539 10.783468,-22.899217 10.783468,-22.899217 0,0 0.227376,-0.676223 0.888834,-0.817964 0.661459,-0.141741 1.464658,1.464657 1.464658,1.464657 0,0 0.519717,0.850447 0.377976,1.228423 -0.141741,0.377976 -0.755952,3.543527 -0.94494,3.96875 -0.188988,0.425223 -3.449033,8.787946 -3.449033,8.787946 L 62.77493,79.108517 c 0,0 -2.672695,7.41673 -2.873147,8.051495 -0.200452,0.634765 -3.741773,9.772042 -3.842,10.239764 -0.0631,0.357751 0.180074,0.580588 0.270481,0.683825 0.195712,0.270933 1.442579,1.264586 2.286097,2.063849 0,0 2.187201,2.38785 2.639406,3.35237 0.384355,0.8198 2.192743,4.059 2.648632,4.97158 0.39003,0.78075 3.4867,4.63293 5.137015,6.7683 0.293946,0.38034 0.98328,1.37715 2.069701,1.4339 2.756041,0.0554 11.813681,0.0539 14.949152,0.009 2.410843,-0.0345 5.894074,0.0621 8.913675,0.62731 1.310655,0.24532 5.934498,1.51922 9.592018,3.87578 1.72207,1.10955 5.05121,3.89753 6.72098,4.6878 0.73401,-0.55467 2.59135,-2.11462 3.58548,-5.54627 0.40855,-1.41027 0.97948,-2.22703 1.19819,-3.80953 0.20995,-1.5191 -0.0498,-3.58432 0.61849,-7.29213 0.12813,-0.71089 0.72054,-1.47972 0.86509,-2.28053 0.20942,-1.16015 0.89852,-4.64969 1.54266,-7.437613 0.10826,-0.468565 1.1353,0.983503 1.1353,0.983503 0,0 -0.29337,-3.097398 -0.30414,-5.366202 -0.006,-1.233737 0.67743,-3.415572 0.75877,-4.002491 0.19153,-1.382101 1.75333,0.792067 1.75333,0.792067 0,0 -0.39172,-1.595309 -0.39754,-2.967155 -7.6e-4,-0.17724 0.71264,-6.27576 2.38811,-8.581126 1.67547,-2.305366 2.01683,2.036626 2.16113,2.598459 0.13625,-0.528351 0.007,-2.689718 1.3979,-5.347851 0.28316,-0.54096 0.73641,-1.876847 0.79564,-3.415521 0.0643,-1.669888 -0.70674,-3.116539 0.12011,-3.060666 0.54964,0.03714 1.09064,-0.690566 2.06915,-0.699791 0.54384,1.15801 1.50604,3.175427 1.50604,3.175427 0,0 4.13867,-2.752581 5.63113,-0.934306 1.1233,1.368529 1.36143,4.336091 1.36143,4.336091 0,0 3.0217,-1.118462 3.95716,-0.245247 1.52724,1.425627 1.42519,2.819087 1.49111,2.956234 0.21916,0.456001 0.0616,1.247646 1.20753,1.965607 -0.12392,0.863261 -1.22239,1.749006 -1.22239,1.749006 l -4.41281,6.525315 c 0,0 2.97177,-2.613377 3.93539,-2.933619 -0.76029,1.495515 -2.08421,3.586377 -4.23736,5.486578 -1.30049,1.147717 -4.58349,4.981433 -5.75839,7.097849 -0.35167,0.633482 -1.16421,3.770812 -1.53803,4.402442 -1.77303,1.90154 -4.28574,4.65231 -5.39868,7.60597 -2.65115,3.03478 -10.45274,9.14207 -12.61186,12.33994 -0.28207,0.41777 -0.62955,1.60452 -2.45662,4.14516 -0.75756,1.05342 -1.62585,2.49424 -0.30507,3.93257 0.71213,0.77552 1.42712,1.24392 1.58826,2.17928 0.096,0.55737 0.0796,3.09478 -0.26911,4.47289 6.54004,3.71995 4.63835,4.94779 3.20702,5.30778 -0.37503,0.0943 -16.714661,0.62511 -16.714661,0.62511 0,0 -1.897794,-0.10751 -2.393041,-0.24775 z"
         id="path4540" />
      <path
         style="fill:#ffffff;stroke:#000000;stroke-width:1;stroke-linecap:butt;stroke-linejoin:miter;stroke-miterlimit:4;stroke-dasharray:none;stroke-opacity:1"
         d="m 48.826802,104.18173 c -1.844311,0.0973 -1.828504,1.58692 -1.074452,2.51314 0.396613,0.48717 1.5389,0.59737 1.859555,0.3099 0.373106,-0.33449 0.459231,-0.48392 0.611648,-0.78833 0.108917,-0.21754 0.182733,-0.50496 0.137249,-0.85859 -0.103668,-0.80602 -0.713446,-1.21941 -1.534,-1.17612 z"
         id="path4542" />
      <path
         style="fill:#ffffff;stroke:#140000;stroke-width:1;stroke-linecap:butt;stroke-linejoin:miter;stroke-miterlimit:4;stroke-dasharray:none;stroke-opacity:1"
         d="m 39.545508,105.59277 c -0.305662,0.43856 -0.09841,1.12419 0.03817,1.26312 0.227809,0.23173 1.001506,0.49051 1.073137,0.49262 0.346228,0.0102 1.059968,-0.0895 1.383129,-0.30949 0.462115,-0.31455 0.639656,-1.20355 0.639656,-1.20355 -0.126575,-0.73077 -0.619524,-1.41912 -1.618121,-1.25282 -0.689722,0.11486 -1.071588,0.37253 -1.515971,1.01012 z"
         id="path4544" />
      <path
         style="fill:none;stroke:#000000;stroke-width:1;stroke-linecap:butt;stroke-linejoin:miter;stroke-miterlimit:4;stroke-dasharray:none;stroke-opacity:1"
         d="m 39.968258,65.912084 c 0,0 0.318824,4.94215 0.634765,7.683997 1.101042,6.268276 3.590943,19.044344 3.590943,19.044344"
         id="path4546" />
      <path
         style="fill:none;stroke:#000000;stroke-width:1;stroke-linecap:butt;stroke-linejoin:miter;stroke-miterlimit:4;stroke-dasharray:none;stroke-opacity:1"
         d="m 52.217782,96.313992 c 0,0 2.246657,-6.431762 3.580953,-9.563248 1.013369,-2.378295 2.34422,-4.612969 3.354538,-6.992562 1.890989,-4.453827 5.055431,-13.607143 5.055431,-13.607143"
         id="path4548" />
      <path
         style="fill:none;stroke:#000000;stroke-width:1;stroke-linecap:butt;stroke-linejoin:miter;stroke-miterlimit:4;stroke-dasharray:none;stroke-opacity:1"
         d="m 101.34487,131.06845 c 0,0 -0.50539,2.12783 -0.24435,3.32924 1.31391,0.74791 2.53342,1.31929 3.76936,2.07355 0.77841,0.47504 1.27132,0.63094 2.19188,1.63702 -0.68575,1.00271 -2.26786,1.5119 -2.26786,1.5119"
         id="path4550" />
      <path
         style="fill:#ffc485;fill-opacity:1;stroke:#000000;stroke-width:1;stroke-linecap:butt;stroke-linejoin:miter;stroke-miterlimit:4;stroke-dasharray:none;stroke-opacity:1"
         d="m 148.34529,68.868778 c 0.60593,0.534205 1.77023,0.697645 1.77023,0.697645 -0.82958,0.929399 -1.66997,2.984287 -2.89454,4.521825 1.11762,-0.09109 1.39364,0.05157 2.61238,0.07537 -0.66414,0.789707 -1.2301,1.457656 -2.2608,2.432504 -0.19771,1.261681 -0.0236,0.188988 -0.22134,1.450669 -0.56525,0.634103 -1.01026,0.606601 -2.42974,1.682051 0,0 -0.60163,-2.14958 -1.50916,-2.96679 -1.24144,-1.117888 -3.93911,0.255803 -3.93911,0.255803 0,0 -0.3598,-3.630939 -1.48619,-4.547178 -1.75201,-1.425127 -5.50637,1.145393 -5.50637,1.145393 l -1.50604,-3.175427 c -1.1656,-1.341701 -1.97477,-3.972523 1.51818,-5.086856 0.3294,-0.105083 1.15232,0.351261 1.15232,0.351261 0,0 0.26719,-1.885558 1.57656,-3.944786 0,0 2.45607,-3.360878 3.87357,-2.885264 1.40232,0.470521 1.41741,4.204986 1.41741,4.204986 0,0 2.52744,-2.210698 3.82701,-1.700893 1.33988,0.525619 1.70089,3.96875 1.70089,3.96875 0,0 2.01478,-2.391091 3.16555,-1.937128 0.98811,0.389795 2.1337,1.720408 2.1337,1.720408 -1.3198,1.801912 -1.92771,2.802199 -2.99451,3.737657 z"
         id="path4552" />
      <path
         style="fill:#ffe5ca;fill-opacity:1;stroke:#000000;stroke-width:1;stroke-linecap:butt;stroke-linejoin:miter;stroke-miterlimit:4;stroke-dasharray:none;stroke-opacity:1"
         d="m 139.09524,58.874998 c 1.40232,0.470521 1.41741,4.204986 1.41741,4.204986 0,0 2.52744,-2.210698 3.82701,-1.700893 1.33988,0.525619 1.70089,3.96875 1.70089,3.96875 0,0 2.01478,-2.391091 3.16555,-1.937128 0.98811,0.389795 2.7361,1.011702 2.7361,1.011702 1.04512,-1.641106 1.64995,-2.788903 1.87804,-3.557196 0.5575,-1.877825 0.12274,-3.571599 0.37113,-4.214196 -0.86349,0.576977 -2.86238,1.537227 -4.59574,2.770389 2.78331,-5.203883 4.66589,-10.440539 4.63869,-11.567737 -1.45059,0.459725 -1.44463,0.410847 -3.22089,0.966788 1.99892,-2.551067 2.51088,-11.258163 2.51088,-11.258163 -2.37759,0.644209 -6.5479,6.530007 -8.02839,9.31602 -0.30735,-0.910671 -0.60427,-1.412135 -0.97212,-2.149246 -2.26276,2.256522 -4.33631,8.919892 -5.98175,11.132738 -1.14927,-0.331076 -1.25854,-1.216726 -2.00524,-1.467048 -1.30639,2.413063 -1.05248,4.408097 -1.13139,6.546985 0,0 2.27232,-2.542365 3.68982,-2.066751 z"
         id="path4554" />
    </g>
    <path
       id="path1610-5"
       title="sin(x)"
       d="m 55.427863,119.29115 c 0.0362,0.76736 0.0724,-1.13184 0.10859,-0.36639 0.0362,0.76546 0.0724,-1.12981 0.10858,-0.36628 0.0362,0.76353 0.0724,-1.12771 0.10859,-0.36611 0.0362,0.7616 0.0724,-1.12551 0.10859,-0.36583 0.0362,0.75968 0.0724,-1.12323 0.10859,-0.36547 0.0362,0.75775 0.0724,-1.12085 0.10858,-0.36502 0.0362,0.75584 0.0724,-1.11838 0.10859,-0.36447 0.0362,0.75391 0.0724,-1.11582 0.10859,-0.36384 0.0362,0.75199 0.0724,-1.11318 0.10858,-0.36311 0.0362,0.75006 0.0724,-1.11043 0.10859,-0.36229 0.0362,0.74814 0.0724,-1.10762 0.10859,-0.3614 0.0362,0.74622 0.0724,-1.10469 0.10859,-0.36039 0.0362,0.74429 0.0724,-1.1017 0.10858,-0.35933 0.0362,0.74239 0.0724,-1.09857 0.10859,-0.35813 0.0362,0.74045 0.0724,-1.0954 0.10859,-0.35688 0.0362,0.73852 0.0724,-1.09213 0.10858,-0.35553 0.0362,0.73659 0.0724,-1.08877 0.10859,-0.3541 0.0362,0.73469 0.0724,-1.08531 0.10858,-0.35256 0.0362,0.73276 0.0724,-1.08178 0.10859,-0.35095 0.0362,0.73084 0.0724,-1.07815 0.10859,-0.34925 0.0362,0.72891 0.0724,-1.07444 0.10859,-0.34747 0.0362,0.727 0.0724,-1.07064 0.10858,-0.34558 0.0362,0.72505 0.0724,-1.06677 0.10859,-0.34364 0.0362,0.72315 0.0724,-1.06279 0.10859,-0.34157 0.0362,0.7212 0.0724,-1.05876 0.10858,-0.33947 0.0362,0.7193 0.0724,-1.05461 0.10859,-0.33724 0.0362,0.71736 0.0724,-1.0504 0.10859,-0.33495 0.0362,0.71545 0.0724,-1.04609 0.10859,-0.33257 0.0362,0.71353 0.0724,-1.0417 0.10858,-0.3301 0.0362,0.71159 0.0724,-1.03724 0.10859,-0.32756 0.0362,0.70967 0.0724,-1.03269 0.10859,-0.32494 0.0362,0.70775 0.0724,-1.02804 0.10858,-0.32223 0.0362,0.70583 0.0724,-1.02334 0.10859,-0.31944 0.0362,0.7039 0.0724,-1.01856 0.10859,-0.31657 0.0362,0.70197 0.0724,-1.01369 0.10858,-0.31363 0.0362,0.70005 0.0724,-1.00876 0.10859,-0.31062 0.0362,0.69812 0.0724,-1.00373 0.10859,-0.30752 0.0362,0.69621 0.0724,-0.99862 0.10859,-0.30433 0.0362,0.69429 0.0724,-0.99347 0.10858,-0.3011 0.0362,0.69237 0.0724,-0.98821 0.10859,-0.29776 0.0362,0.69044 0.0724,-0.98291 0.10859,-0.29438 0.0362,0.68853 0.0724,-0.9775 0.10858,-0.29089 0.0362,0.6866 0.0724,-0.97203 0.10859,-0.28736 0.0362,0.68468 0.0724,-0.96649 0.10859,-0.28374 0.0362,0.68276 0.0724,-0.96088 0.10858,-0.28004 0.0362,0.68082 0.0724,-0.95521 0.10859,-0.27631 0.0362,0.67892 0.0724,-0.94944 0.10859,-0.27247 0.0362,0.67698 0.0724,-0.94363 0.10859,-0.26858 0.0362,0.67505 0.0724,-0.93775 0.10858,-0.26462 0.0362,0.67312 0.0724,-0.93181 0.10859,-0.26061 0.0362,0.67122 0.0724,-0.9258 0.10859,-0.25651 0.0362,0.66928 0.0724,-0.91973 0.10858,-0.25236 0.0362,0.66737 0.0724,-0.91359 0.10859,-0.24815 0.0362,0.66544 0.0724,-0.9074 0.10859,-0.24387 0.0362,0.66352 0.0724,-0.90114 0.10859,-0.23954 0.0362,0.6616 0.0724,-0.89482 0.10858,-0.23515 0.0362,0.65968 0.0724,-0.88844 0.10859,-0.23068 0.0362,0.65775 0.0724,-0.88201 0.10859,-0.22618 0.0362,0.65582 0.0724,-0.875524 0.10858,-0.22161 0.0362,0.6539 0.0724,-0.868954 0.10859,-0.21698 0.0362,0.65196 0.0724,-0.862374 0.10859,-0.21232 0.0362,0.65005 0.0724,-0.855714 0.10858,-0.20759 0.0362,0.64813 0.0724,-0.848994 0.10859,-0.202794 0.0362,0.646204 0.0724,-0.84226 0.10859,-0.19798 0.0362,0.644274 0.0724,-0.83546 0.10859,-0.19309 0.0362,0.642354 0.0724,-0.8286 0.10858,-0.18817 0.0362,0.64044 0.0724,-0.82172 0.10859,-0.18319 0.0362,0.63851 0.0724,-0.81477 0.10859,-0.17818 0.0362,0.63659 0.0724,-0.80779 0.10858,-0.17311 0.0362,0.63467 0.0724,-0.80076 0.10859,-0.168 0.0362,0.63274 0.0724,-0.79369 0.10859,-0.16287 0.0362,0.63083 0.0724,-0.78656 0.10859,-0.15767 0.0362,0.62891 0.0724,-0.77941 0.10858,-0.15244 0.0362,0.62697 0.0724,-0.77223 0.10859,-0.14718 0.0362,0.62506 0.0724,-0.76501 0.10859,-0.14187 0.0362,0.62312 0.0724,-0.75774 0.10858,-0.13653 0.0362,0.6212 0.0724,-0.75046 0.10859,-0.13114 0.0362,0.61927 0.0724,-0.743134 0.10859,-0.12573 0.0362,0.61737 0.0724,-0.735754 0.10858,-0.1203 0.0362,0.61544 0.0724,-0.728374 0.10859,-0.11488 0.0362,0.6135 0.0724,-0.720974 0.10859,-0.10933 0.0362,0.61158 0.0724,-0.713534 0.10859,-0.10391 0.0362,0.60967 0.0724,-0.706054 0.10858,-0.0984 0.0362,0.60775 0.0724,-0.698554 0.10859,-0.0927 0.0362,0.605824 0.0724,-0.69104 0.10859,-0.0871 0.0362,0.603894 0.0724,-0.68351 0.10858,-0.0816 0.0362,0.601974 0.0724,-0.67595 0.10859,-0.0759 0.0362,0.600054 0.0724,-0.66837 0.10859,-0.0703 0.0362,0.598134 0.0724,-0.66077 0.10859,-0.0646 0.0362,0.596204 0.0724,-0.65316 0.10858,-0.0589 0.0362,0.594284 0.0724,-0.64555 0.10859,-0.0532 0.0362,0.592364 0.0724,-0.6379 0.10859,-0.0474 0.0362,0.59044 0.0724,-0.63025 0.10858,-0.0417 0.0362,0.58851 0.0724,-0.62259 0.10859,-0.036 0.0362,0.58659 0.0724,-0.61491 0.10859,-0.0302 0.0362,0.58466 0.0724,-0.60724 0.10858,-0.0245 0.0362,0.58274 0.0724,-0.59956 0.10859,-0.0187 0.0362,0.58081 0.0724,-0.59189 0.10859,-0.0136 0.0362,0.57889 0.0724,-0.58419 0.10859,-0.007 0.0362,0.57698 0.0724,-0.57649 0.10858,-10e-4 0.0362,0.57504 0.0724,-0.5688 0.10859,0.004 0.0362,0.57314 0.0724,-0.5611 0.10859,0.009 0.0362,0.57121 0.0724,-0.55341 0.10858,0.0159 0.0362,0.56928 0.0724,-0.54573 0.10859,0.0217 0.0362,0.56736 0.0724,-0.53804 0.10859,0.0274 0.0362,0.56544 0.0724,-0.53038 0.10859,0.0332 0.0362,0.5635 0.0724,-0.52272 0.10858,0.0389 0.0362,0.56159 0.0724,-0.51505 0.10859,0.0446 0.0362,0.55966 0.0724,-0.50742 0.10859,0.0503 0.0362,0.557744 0.0724,-0.49979 0.10858,0.0561 0.0362,0.555824 0.0724,-0.49215 0.10859,0.0618 0.0362,0.553884 0.0724,-0.48457 0.10859,0.0673 0.0362,0.551974 0.0724,-0.47697 0.10858,0.073 0.0362,0.550054 0.0724,-0.46941 0.10859,0.0787 0.0362,0.548124 0.0724,-0.46187 0.10859,0.0843 0.0362,0.546204 0.0724,-0.45433 0.10859,0.09 0.0362,0.544274 0.0724,-0.44683 0.10858,0.0955 0.0362,0.54235 0.0724,-0.439344 0.10859,0.10106 0.0362,0.54043 0.0724,-0.431894 0.10859,0.10662 0.0362,0.53852 0.0724,-0.424464 0.10858,0.11218 0.0362,0.53658 0.0724,-0.417064 0.10859,0.11759 0.0362,0.53466 0.0724,-0.40968 0.10859,0.12301 0.0362,0.53274 0.0724,-0.40233 0.10859,0.12844 0.0362,0.53081 0.0724,-0.39504 0.10858,0.13385 0.0362,0.5289 0.0724,-0.38775 0.10859,0.13921 0.0362,0.52696 0.0724,-0.38051 0.10859,0.14453 0.0362,0.52505 0.0724,-0.37331 0.10858,0.14982 0.0362,0.52312 0.0724,-0.36614 0.10859,0.15505 0.0362,0.52121 0.0724,-0.35899 0.10859,0.16027 0.0362,0.51928 0.0724,-0.35191 0.10858,0.16545 0.0362,0.51734 0.0724,-0.34487 0.10859,0.17056 0.0362,0.51542 0.0724,-0.33786 0.10859,0.17565 0.0362,0.5135 0.0724,-0.33089 0.10859,0.18069 0.0362,0.51157 0.0724,-0.32397 0.10858,0.18569 0.0362,0.50966 0.0724,-0.3171 0.10859,0.19064 0.0362,0.507714 0.0724,-0.31028 0.10859,0.19553 0.0362,0.505814 0.0724,-0.30349 0.10858,0.20039 0.0362,0.503894 0.0724,-0.29675 0.10859,0.205204 0.0362,0.50197 0.0724,-0.290084 0.10859,0.20995 0.0362,0.50004 0.0724,-0.28346 0.10858,0.21466 0.0362,0.49812 0.0724,-0.27688 0.10859,0.21931 0.0362,0.4962 0.0724,-0.27037 0.10859,0.2239 0.0362,0.49428 0.0724,-0.2639 0.10859,0.22844 0.0362,0.49235 0.0724,-0.2575 0.10858,0.23293 0.0362,0.49042 0.0724,-0.25116 0.10859,0.23734 0.0362,0.4885 0.0724,-0.24486 0.10859,0.24172 0.0362,0.48657 0.0724,-0.23865 0.10858,0.24601 0.0362,0.48466 0.0724,-0.23247 0.10859,0.25026 0.0362,0.48274 0.0724,-0.22635 0.10859,0.25445 0.0362,0.48081 0.0724,-0.22032 0.10859,0.25857 0.0362,0.47889 0.0724,-0.21435 0.10858,0.26262 0.0362,0.47696 0.0724,-0.20843 0.10859,0.26661 0.0362,0.47505 0.0724,-0.20258 0.10859,0.27054 0.0362,0.47311 0.0724,-0.1968 0.10858,0.2744 0.0362,0.47118 0.0724,-0.19109 0.10859,0.27817 0.0362,0.46928 0.0724,-0.18544 0.10859,0.28191 0.0362,0.46734 0.0724,-0.17987 0.10858,0.28555 0.0362,0.46543 0.0724,-0.17436 0.10859,0.28913 0.0362,0.46351 0.0724,-0.16894 0.10859,0.29265 0.0362,0.46158 0.0724,-0.16358 0.10859,0.29609 0.0362,0.45964 0.0724,-0.15831 0.10858,0.29943 0.0362,0.45773 0.0724,-0.15308 0.10859,0.30272 0.0362,0.45581 0.0724,-0.14794 0.10859,0.30594 0.0362,0.45389 0.0724,-0.14288 0.10858,0.30908 0.0362,0.45196 0.0724,-0.1379 0.10859,0.31212 0.0362,0.45003 0.0724,-0.13304 0.10859,0.31511 0.0362,0.44811 0.0724,-0.12815 0.10859,0.31803 0.0362,0.44619 0.0724,-0.12342 0.10858,0.32085 0.0362,0.44427 0.0724,-0.11881 0.10859,0.32358 0.0362,0.44235 0.0724,-0.1142 0.10859,0.32627 0.0362,0.44042 0.0724,-0.1096 0.10858,0.32884 0.0362,0.4385 0.0724,-0.10526 0.10859,0.33135 0.0362,0.43657 0.0724,-0.10093 0.10859,0.33376 0.0362,0.43466 0.0724,-0.0966 0.10858,0.33612 0.0362,0.43272 0.0724,-0.0924 0.10859,0.33835 0.0362,0.43081 0.0724,-0.0883 0.10859,0.34053 0.0362,0.42889 0.0724,-0.0844 0.10859,0.34262 0.0362,0.42697 0.0724,-0.0803 0.10858,0.34462 0.0362,0.42503 0.0724,-0.0765 0.10859,0.34654 0.0362,0.42312 0.0724,-0.0729 0.10859,0.34838 0.0362,0.42118 0.0724,-0.0692 0.10858,0.35011 0.0362,0.41926 0.0724,-0.0656 0.10859,0.35176 0.0362,0.41735 0.0724,-0.062 0.10859,0.35334 0.0362,0.41542 0.0724,-0.0587 0.10859,0.35482 0.0362,0.4135 0.0724,-0.0554 0.10858,0.35621 0.0362,0.41158 0.0724,-0.0522 0.10859,0.35752 0.0362,0.40965 0.0724,-0.049 0.10859,0.35874 0.0362,0.40773 0.0724,-0.0459 0.10858,0.35987 0.0362,0.4058 0.0724,-0.0429 0.10859,0.36091 0.0362,0.40388 0.0724,-0.0401 0.10859,0.36185 0.0362,0.40196 0.0724,-0.0373 0.10858,0.36271 0.0362,0.40004 0.0724,-0.0347 0.10859,0.3635 0.0362,0.39811 0.0724,-0.032 0.10859,0.36416 0.0362,0.39619 0.0724,-0.0295 0.10859,0.36476 0.0362,0.39426 0.0724,-0.0271 0.10858,0.36525 0.0362,0.39234 0.0724,-0.0248 0.10859,0.36567 0.0362,0.39041 0.0724,-0.0225 0.10859,0.36597 0.0362,0.3885 0.0724,-0.0203 0.10858,0.36621 0.0362,0.38657 0.0724,-0.0183 0.10859,0.36634 0.0362,0.38466 0.0724,-0.0164 0.10859,0.3664 0.0362,0.38272 0.0724,-0.0145 0.10859,0.36634 0.0362,0.38081 0.0724,-0.0122 0.10858,0.3662 0.0362,0.37889 0.0724,-0.0108 0.10859,0.36599 0.0362,0.37695 0.0724,-0.009 0.10859,0.36567 0.0362,0.37502 0.0724,-0.008 0.10858,0.36524 0.0362,0.37312 0.0724,-0.007 0.10859,0.36476 0.0362,0.37119 0.0724,-0.005 0.10859,0.36417 0.0362,0.36925 0.0724,-0.004 0.10858,0.36348 0.0362,0.36735 0.0724,-0.003 0.10859,0.36271 0.0362,0.36542 0.0724,-0.001 0.10859,0.36186 0.0362,0.3635 0.0724,-5.3e-4 0.10859,0.36091 0.0362,0.36157 0.0724,2.2e-4 0.10858,0.35986 0.0362,0.35965 0.0724,0.001 0.10859,0.35875 0.0362,0.35772 0.0724,0.001 0.10859,0.35752 0.0362,0.3558 0.0724,0.003 0.10858,0.35622 0.0362,0.35388 0.0724,0.003 0.10859,0.35481 0.0362,0.35195 0.0724,0.003 0.10859,0.35335 0.0362,0.35003 0.0724,0.004 0.10859,0.35176 0.0362,0.34811 0.0724,0.004 0.10858,0.35011 0.0362,0.34619 0.0724,0.004 0.10859,0.34837 0.0362,0.34426 0.0724,0.004 0.10859,0.34653 0.0362,0.34235 0.0724,0.004 0.10858,0.34463 0.0362,0.34041 0.0724,0.004 0.10859,0.34262 0.0362,0.33848 0.0724,0.004 0.10859,0.34053 0.0362,0.33656 0.0724,0.004 0.10858,0.33837 0.0362,0.33463 0.0724,0.003 0.10859,0.3361 0.0362,0.33271 0.0724,0.003 0.10859,0.33377 0.0362,0.33079 0.0724,0.003 0.10859,0.33135 0.0362,0.32887 0.0724,0.001 0.10858,0.32884 0.0362,0.32694 0.0724,0.001 0.10859,0.32625 0.0362,0.32504 0.0724,5.3e-4 0.10859,0.3236 0.0362,0.3231 0.0724,-2.6e-4 0.10858,0.32085 0.0362,0.32117 0.0724,-0.001 0.10859,0.31802 0.0362,0.31926 0.0724,-0.003 0.10859,0.31512 0.0362,0.31733 0.0724,-0.003 0.10859,0.31213 0.0362,0.3154 0.0724,-0.004 0.10858,0.30908 0.0362,0.31348 0.0724,-0.005 0.10859,0.30593 0.0362,0.31157 0.0724,-0.007 0.10859,0.30272 0.0362,0.30965 0.0724,-0.008 0.10858,0.29945 0.0362,0.30772 0.0724,-0.009 0.10859,0.29606 0.0362,0.3058 0.0724,-0.0108 0.10859,0.29265 0.0362,0.30387 0.0724,-0.0122 0.10859,0.28913 0.0362,0.30195 0.0724,-0.0145 0.10858,0.28556 0.0362,0.30002 0.0724,-0.0163 0.10859,0.2819 0.0362,0.2981 0.0724,-0.018 0.10859,0.27818 0.0362,0.29618 0.0724,-0.0199 0.10858,0.2744 0.0362,0.29425 0.0724,-0.0218 0.10859,0.27053 0.0362,0.29233 0.0724,-0.0238 0.10859,0.26662 0.0362,0.2904 0.0724,-0.0259 0.10858,0.26262 0.0362,0.28848 0.0724,-0.028 0.10859,0.25857 0.0362,0.28656 0.0724,-0.0302 0.10859,0.25443 0.0362,0.28464 0.0724,-0.0324 0.10858,0.25027 0.0362,0.28271 0.0724,-0.0348 0.10859,0.24602 0.0362,0.28079 0.0724,-0.0371 0.10859,0.24171 0.0362,0.27888 0.0724,-0.0396 0.10859,0.23735 0.0362,0.27694 0.0724,-0.0421 0.10858,0.23293 0.0362,0.27501 0.0724,-0.0447 0.10859,0.22844 0.0362,0.27309 0.0724,-0.0473 0.10859,0.2239 0.0362,0.27117 0.0724,-0.05 0.10858,0.21929 0.0362,0.26926 0.0724,-0.0527 0.10859,0.21467 0.0362,0.26733 0.0724,-0.0554 0.10859,0.20996 0.0362,0.26539 0.0724,-0.0583 0.10858,0.20519 0.0362,0.26349 0.0724,-0.0611 0.10859,0.2004 0.0362,0.26156 0.0724,-0.0641 0.10859,0.19554 0.0362,0.25964 0.0724,-0.0671 0.10859,0.19064 0.0362,0.25771 0.0724,-0.07 0.10858,0.18569 0.0362,0.25579 0.0724,-0.0732 0.10859,0.18068 0.0362,0.25387 0.0724,-0.0763 0.10859,0.17566 0.0362,0.25195 0.0724,-0.0795 0.10859,0.17057 0.0362,0.25002 0.0724,-0.0827 0.10858,0.16543 0.0362,0.24809 0.0724,-0.0859 0.10859,0.16026 0.0362,0.24618 0.0724,-0.0891 0.10859,0.15507 0.0362,0.24425 0.0724,-0.0925 0.10858,0.14981 0.0362,0.24233 0.0724,-0.0959 0.10859,0.14453 0.0362,0.24041 0.0724,-0.0993 0.10859,0.13921 0.0362,0.23848 0.0724,-0.10269 0.10858,0.13385 0.0362,0.23656 0.0724,-0.10621 0.10859,0.12843 0.0362,0.23465 0.0724,-0.1096 0.10859,0.12301 0.0362,0.23273 0.0724,-0.11312 0.10859,0.1176 0.0362,0.23078 0.0724,-0.11678 0.10858,0.11217 0.0362,0.22886 0.0724,-0.1203 0.10859,0.10662 0.0362,0.22694 0.0724,-0.12396 0.10859,0.10107 0.0362,0.22502 0.0724,-0.12762 0.10858,0.0955 0.0362,0.22311 0.0724,-0.13127 0.10859,0.09 0.0362,0.22118 0.0724,-0.13493 0.10859,0.0844 0.0362,0.21925 0.0724,-0.13862 0.10859,0.0787 0.0362,0.21732 0.0724,-0.14233 0.10858,0.073 0.0362,0.21541 0.0724,-0.14607 0.10859,0.0675 0.0362,0.21348 0.0724,-0.14983 0.10859,0.0618 0.0362,0.21156 0.0724,-0.15359 0.10858,0.0561 0.0362,0.20964 0.0724,-0.15738 0.10859,0.0503 0.0362,0.20771 0.0724,-0.16117 0.10859,0.0446 0.0362,0.20579 0.0724,-0.16498 0.10859,0.0389 0.0362,0.20387 0.0724,-0.16882 0.10858,0.0332 0.0362,0.20194 0.0724,-0.17264 0.10859,0.0274 0.0362,0.20002 0.0724,-0.17647 0.10859,0.0217 0.0362,0.19809 0.0724,-0.18031 0.10858,0.0159 0.0362,0.19617 0.0724,-0.18415 0.10859,0.009 0.0362,0.19425 0.0724,-0.18798 0.10859,0.004 0.0362,0.19232 0.0724,-0.19185 0.10858,-0.001 0.0362,0.1904 0.0724,-0.19568 0.10859,-0.007 0.0362,0.18847 0.0724,-0.19953 0.10859,-0.0135 0.0362,0.18655 0.0724,-0.20337 0.10858,-0.0187 0.0362,0.18464 0.0724,-0.20721 0.10859,-0.0245 0.0362,0.1827 0.0724,-0.21105 0.10859,-0.0302 0.0362,0.1808 0.0724,-0.21485 0.10858,-0.036 0.0362,0.17885 0.0724,-0.21867 0.10859,-0.0417 0.0362,0.17693 0.0724,-0.22248 0.10859,-0.0474 0.0362,0.17503 0.0724,-0.22627 0.10859,-0.0532 0.0362,0.17309 0.0724,-0.23005 0.10858,-0.0589 0.0362,0.17116 0.0724,-0.23381 0.10859,-0.0646 0.0362,0.16925 0.0724,-0.23756 0.10859,-0.0702 0.0362,0.16732 0.0724,-0.2413 0.10858,-0.0759 0.0362,0.16539 0.0724,-0.245 0.10859,-0.0815 0.0362,0.16346 0.0724,-0.2487 0.10859,-0.0871 0.0362,0.16155 0.0724,-0.25237 0.10859,-0.0928 0.0362,0.15963 0.0724,-0.25601 0.10858,-0.0984 0.0362,0.1577 0.0724,-0.25963 0.10859,-0.10391 0.0362,0.15579 0.0724,-0.26322 0.10859,-0.10932 0.0362,0.15386 0.0724,-0.26682 0.10858,-0.11488 0.0362,0.15192 0.0724,-0.27036 0.10859,-0.12032 0.0362,0.15003 0.0724,-0.27384 0.10859,-0.12571 0.0362,0.14808 0.0724,-0.27734 0.10859,-0.13115 0.0362,0.14617 0.0724,-0.28078 0.10858,-0.13653 0.0362,0.14424 0.0724,-0.2842 0.10859,-0.14189 0.0362,0.14233 0.0724,-0.28756 0.10859,-0.14716 0.0362,0.1404 0.0724,-0.29093 0.10858,-0.15246 0.0362,0.13847 0.0724,-0.2942 0.10859,-0.15766 0.0362,0.13654 0.0724,-0.29748 0.10859,-0.16286 0.0362,0.13466 0.0724,-0.30072 0.10858,-0.16799 0.0362,0.13276 0.0724,-0.30391 0.10859,-0.17312 0.0362,0.13073 0.0724,-0.30702 0.10859,-0.17817 0.0362,0.12882 0.0724,-0.31014 0.10859,-0.18319 0.0362,0.12693 0.0724,-0.31319 0.10858,-0.18819 0.0362,0.12505 0.0724,-0.31618 0.10859,-0.19308 0.0362,0.12314 0.0724,-0.31916 0.10859,-0.19799 0.0362,0.12112 0.0724,-0.32203 0.10858,-0.20279 0.0362,0.1192 0.0724,-0.3249 0.10859,-0.20759 0.0362,0.11733 0.0724,-0.32771 0.10859,-0.21232 0.0362,0.11543 0.0724,-0.33047 0.10859,-0.21699 0.0362,0.11353 0.0724,-0.33315 0.10858,-0.22161 0.0362,0.11149 0.0724,-0.33579 0.10859,-0.22618 0.0362,0.1096 0.0724,-0.33838 0.10859,-0.23069 0.0362,0.1077 0.0724,-0.34091 0.10858,-0.23513 0.0362,0.1058 0.0724,-0.34338 0.10859,-0.23954 0.0362,0.10391 0.0724,-0.34581 0.10859,-0.24388 0.0362,0.10189 0.0724,-0.34814 0.10858,-0.24813 0.0362,0.1 0.0724,-0.35046 0.10859,-0.25238 0.0362,0.0981 0.0724,-0.35268 0.10859,-0.25652 0.0362,0.0962 0.0724,-0.35483 0.10859,-0.2606 0.0362,0.0943 0.0724,-0.35694 0.10858,-0.26461 0.0362,0.0923 0.0724,-0.35898 0.10859,-0.26859 0.0362,0.0904 0.0724,-0.36094 0.10859,-0.27248 0.0362,0.0885 0.0724,-0.36283 0.10858,-0.27629 0.0362,0.0866 0.0724,-0.36467 0.10859,-0.28006 0.0362,0.0847 0.0724,-0.36642 0.10859,-0.28373 0.0362,0.0826 0.0724,-0.36812 0.10858,-0.28734 0.0362,0.0807 0.0724,-0.36977 0.10859,-0.29091 0.0362,0.0789 0.0724,-0.3713 0.10859,-0.29436 0.0362,0.0769 0.0724,-0.37277 0.10858,-0.29778 0.0362,0.0751 0.0724,-0.37416 0.10859,-0.30108 0.0362,0.073 0.0724,-0.3755 0.10859,-0.30435 0.0362,0.0711 0.0724,-0.37674 0.10859,-0.30751 0.0362,0.0692 0.0724,-0.37793 0.10858,-0.31061 0.0362,0.0673 0.0724,-0.37902 0.10859,-0.31364 0.0362,0.0654 0.0724,-0.38004 0.10859,-0.31657 0.0362,0.0635 0.0724,-0.38099 0.10859,-0.31944 0.0362,0.0615 0.0724,-0.38186 0.10858,-0.32224 0.0362,0.0596 0.0724,-0.38264 0.10859,-0.32494 0.0362,0.0577 0.0724,-0.38333 0.10859,-0.32755 0.0362,0.0558 0.0724,-0.38395 0.10858,-0.33011 0.0362,0.0538 0.0724,-0.38449 0.10859,-0.33258 0.0362,0.0519 0.0724,-0.38493 0.10859,-0.33493 0.0362,0.05 0.0724,-0.38534 0.10858,-0.33726 0.0362,0.0481 0.0724,-0.38561 0.10859,-0.33944 0.0362,0.0462 0.0724,-0.38583 0.10859,-0.3416 0.0362,0.0442 0.0724,-0.38594 0.10859,-0.34363 0.0362,0.0423 0.0724,-0.38598 0.10858,-0.34559 0.0362,0.0404 0.0724,-0.38593 0.10859,-0.34746 0.0362,0.0385 0.0724,-0.38579 0.10859,-0.34925 0.0362,0.0366 0.0724,-0.38556 0.10858,-0.35095 0.0362,0.0347 0.0724,-0.38526 0.10859,-0.35257 0.0362,0.0326 0.0724,-0.38485 0.10859,-0.35409 0.0362,0.0307 0.0724,-0.38437 0.10859,-0.35552 0.0362,0.0289 0.0724,-0.38381 0.10858,-0.35687 0.0362,0.027 0.0724,-0.38315 0.10859,-0.35816 0.0362,0.0251 0.0724,-0.38238 0.10859,-0.3593 0.0362,0.023 0.0724,-0.38156 0.10858,-0.36041 0.0362,0.0211 0.0724,-0.38063 0.10859,-0.36139 0.0362,0.0192 0.0724,-0.3796 0.10859,-0.3623 0.0362,0.0173 0.0724,-0.37849 0.10859,-0.36311 0.0362,0.0154 0.0724,-0.3773 0.10858,-0.36385 0.0362,0.0136 0.0724,-0.376 0.10859,-0.36447 0.0362,0.0122 0.0724,-0.37463 0.10859,-0.36501 0.0362,0.009 0.0724,-0.37316 0.10858,-0.36546 0.0362,0.008 0.0724,-0.37161 0.10859,-0.36584 0.0362,0.005 0.0724,-0.36995 0.10859,-0.36611 0.0362,0.004 0.0724,-0.36821 0.10858,-0.36629 0.0362,0.001 0.0724,-0.36637 0.10859,-0.36637"
       style="fill:#ff0e2f;fill-opacity:0.39215686;stroke:#000000;stroke-width:0.85169208;stroke-miterlimit:4;stroke-dasharray:none;stroke-opacity:1" />
  </g>
</svg>
